<svg id="Layer_1" data-name="Layer 1" xmlns="http://www.w3.org/2000/svg" viewBox="0 0 18.87 22.88"><defs><style>.cls-1{fill:#ff5e27;stroke:#ff5e27;stroke-miterlimit:10;stroke-width:0.75px;}</style></defs><title>doc-icon</title><path class="cls-1" d="M17.69.38H7.35A.68.68,0,0,0,7,.46l0,0a1.09,1.09,0,0,0-.17.13L.61,6.75a1.09,1.09,0,0,0-.13.17l0,0a.73.73,0,0,0-.07.19.86.86,0,0,0,0,.16V21.71a.79.79,0,0,0,.79.8H17.69a.8.8,0,0,0,.8-.8V1.17A.79.79,0,0,0,17.69.38ZM3.11,6.52,6.56,3.09V6.52ZM16.9,2V20.91H2V8.12H7.35a.8.8,0,0,0,.8-.8V2Z"/></svg>