<svg id="Layer_1" data-name="Layer 1" xmlns="http://www.w3.org/2000/svg" viewBox="0 0 136.77 49.7"><defs><style>.cls-1{fill:#303030;}</style></defs><title>uoft</title><g id="Black_Outline_Layer" data-name="Black Outline Layer"><path id="University_of_Toronto_Mark_Stacked" data-name="University of Toronto Mark Stacked" class="cls-1" d="M129.66,29.05a7,7,0,0,1,7.11,7.07,7.38,7.38,0,0,1-7.31,7.21,7,7,0,0,1-6.9-7.21,7.28,7.28,0,0,1,7.1-7.07m.73,13.38c2.57,0,4.18-2.53,4.18-5,0-3.88-2.23-7.52-5.56-7.52-2.64,0-4.25,2.34-4.25,5.05C124.76,38.56,126.82,42.43,130.39,42.43ZM116.11,29.36h-2.93c-1.27,0-2.23,0-3,0s-.9-.21-1-.35h-.38c-.07.18-1,2.65-1,2.78l.45.28c.45-1.2,1-1.79,3.4-1.79a17.35,17.35,0,0,1,2,.11c.14,1.75.17,3.46.17,5.21,0,1.1,0,5.21-.17,6.1-.07.42-.27.61-1.4.82-.48.07-.79.1-1.07.13l.11.56,1.35-.09c.55,0,1.22-.06,2.21-.06.38,0,1,0,1.58,0s1.1,0,1.82.07l.07-.57c-.14,0-.34,0-.65-.08a2.54,2.54,0,0,1-1.24-.41c-.44-.51-.44-4.21-.44-5.21s.13-5.18.13-6.17c0-.42.14-.42,1.38-.42h0c.55,0,.71,0,.91,0,2.44,0,2.51.59,3,1.79l.45-.28c0-.14-.52-2.6-.58-2.78h-.38c-.11.14-.28.31-1,.35-.94,0-2.05,0-3.16,0Zm-22.6,0c-.55,0-1,0-1.65,0-.35,0-.69,0-1,0l-.73-.07v.58c2,.38,2.17.69,2.1,4.67v2.43c0,.93-.06,3.68-.16,4.46s-.48,1-1,1.07c-.27.07-.58.14-.79.17v.51c.52,0,1,0,1.55-.06S93,43,93.51,43s1.06,0,1.54.07a6.64,6.64,0,0,1,1,.06v-.58c-2.71-.48-2.71-.86-2.68-3.16V33.62l0-1.1s0,0,10.1,10.7h.7c-.07-1.13-.07-4-.07-5.31,0-1.82,0-6.51.07-7.1.11-.9,1.3-1,2-1v-.51c-1.48,0-2.29,0-2.94,0a12.85,12.85,0,0,0-1.44-.1,6.12,6.12,0,0,0-.86,0l-.1.51c2.3.14,2.25.35,2.25,5.52,0,.62,0,3.65,0,4.23Zm-12.43-.28a7,7,0,0,1,7.1,7.07,7.38,7.38,0,0,1-7.31,7.21A7,7,0,0,1,74,36.12,7.28,7.28,0,0,1,81.08,29.05Zm.72,13.38c2.57,0,4.19-2.53,4.19-5,0-3.88-2.23-7.52-5.56-7.52-2.64,0-4.26,2.34-4.26,5.05C76.17,38.56,78.23,42.43,81.8,42.43ZM59.29,29.26c.45,0,.86.07,1.31.07s.85,0,1.27,0,1.09-.07,1.88-.14,1.37-.07,1.86-.07c2.91,0,4.77,1.58,4.77,3.71,0,1.92-1.75,3.09-3.13,3.43,2.85,4.12,3.37,4.74,4.46,5.77a3.68,3.68,0,0,0,2.06,1l0,.52a6.07,6.07,0,0,1-4.15-1.41,22.81,22.81,0,0,1-4.53-5.59c-.59,0-.83,0-1.82-.07v2a13,13,0,0,0,.24,3.43c.17.31,1.2.62,1.89.82l0,.52a21.11,21.11,0,0,0-3-.24c-.48,0-2.61.13-3.05.17l-.11-.41c.21,0,1.44-.31,1.75-.89a24.07,24.07,0,0,0,.21-4.33V34.27c0-4.26-.21-4.33-1.92-4.43Zm4,6.45a10.48,10.48,0,0,0,1.48.07c.51,0,3.4,0,3.4-2.75a3.16,3.16,0,0,0-3.37-3.12c-1.44,0-1.44.17-1.47,2.5ZM49.75,29.05a7,7,0,0,1,7.11,7.07,7.39,7.39,0,0,1-7.31,7.21,7,7,0,0,1-6.9-7.21A7.28,7.28,0,0,1,49.75,29.05Zm.72,13.38c2.58,0,4.19-2.53,4.19-5,0-3.88-2.23-7.52-5.56-7.52-2.64,0-4.25,2.34-4.25,5.05C44.85,38.56,46.91,42.43,50.47,42.43ZM35.88,29.36H32.94c-1.27,0-2.23,0-3,0s-.89-.21-1-.35h-.37c-.07.18-1,2.65-1,2.78L28,32c.45-1.2,1-1.79,3.4-1.79a17.38,17.38,0,0,1,2,.11c.13,1.75.17,3.46.17,5.21,0,1.1,0,5.21-.17,6.1-.07.42-.28.61-1.41.82-.48.07-.79.1-1.06.13l.1.56,1.35-.09c.55,0,1.22-.06,2.22-.06.37,0,1,0,1.58,0s1.1,0,1.81.07l.07-.57c-.14,0-.34,0-.65-.08a2.53,2.53,0,0,1-1.23-.41c-.45-.51-.45-4.21-.45-5.21s.14-5.18.14-6.17c0-.42.13-.42,1.37-.42h0c.55,0,.71,0,.91,0,2.44,0,2.51.59,3,1.79l.45-.28c0-.14-.51-2.6-.58-2.78h-.38c-.1.14-.27.31-1,.35-.94,0-2.05,0-3.17,0Zm88.65-12.11a15.33,15.33,0,0,1-2.08.09h-1l-1.08,0-.35,0-.28,0v.26h0c.27,0,.52,0,.63.2s.18.49.18,2.65a23.08,23.08,0,0,1-.12,2.34c-.06.24-.39.32-.64.37h0l0,.33h.06c.61,0,1.27-.06,1.44-.06l.53,0,1,.05v-.36h-.07c-.7-.06-.94-.19-1-.28a1.92,1.92,0,0,1-.11-.84c0-.12,0-.23,0-.34s0-.91,0-1.13l.5,0a5,5,0,0,1,1.42.21c.1,0,.18.23.22.5v.05h.3v-.05c.05-.63,0-1.26,0-1.74v-.05h-.33v.05c-.08.45-.11.63-1.3.63a5.47,5.47,0,0,1-.82-.05h0c0-.11,0-.23,0-.36s0-.28,0-.43c0,0,0-1.27,0-1.47.35,0,.65-.05.73-.05a2.87,2.87,0,0,1,1.49.3,1,1,0,0,1,.32.6v.05l.34,0v-.06c0-.09,0-.43,0-.73l0-.65Zm-9.31,0a3.16,3.16,0,0,1,3.23,3.15,3.31,3.31,0,0,1-3.32,3.21A3.13,3.13,0,0,1,112,20.36,3.27,3.27,0,0,1,115.22,17.21Zm.33,5.87A2,2,0,0,0,117.37,21c0-1.6-.91-3.25-2.44-3.25a2,2,0,0,0-1.85,2.16C113.08,21.44,114,23.08,115.55,23.08Zm-11.79-5.75v.31h.07c.3,0,.73,0,.73.28A8.51,8.51,0,0,1,103.27,20a15.23,15.23,0,0,1-1.6-2.2c0-.07,0-.14.7-.16h0v-.36h-.59l-1.12,0H99.49v.33h.05a1,1,0,0,1,.63.14,18.66,18.66,0,0,1,1.74,2s.52.68.58.75c0,.43.06.92.06,1.51,0,.92,0,1.11-.86,1.14h0l0,.31h0c.13,0,.52,0,.9,0l.66-.05.49,0h.1l.67,0v-.31h0c-.84-.07-.84-.18-.86-.34v-.07c0-.37,0-.79,0-1.25s0-.71,0-1.1l1.2-1.84c.39-.59.6-.91,1.42-.92h0V17.3h0c-.11,0-.44,0-.73,0l-.39,0-.47,0-.33,0-.46,0h0v0Zm-5.43-.17h-.2v0s-.09.12-.41.13l-1.23,0H94.76l-1.35,0c-.32,0-.38-.09-.41-.13v0h-.23l0,0c0,.07-.44,1.16-.46,1.23v0l.29.17,0-.06c.19-.51.4-.75,1.47-.75.34,0,.63,0,.83,0,.06.83.07,1.63.07,2.24s0,2.3-.07,2.67c0,.13-.07.22-.59.31l-.38.05-.15,0,.07.34.5,0h.15l1,0h1.12l.44,0v-.05l0-.3-.28,0h-.06a1.1,1.1,0,0,1-.53-.16A6.08,6.08,0,0,1,96,20.66l0-1.27,0-1.44c0-.12,0-.13.56-.13h.43c1,0,1.07.21,1.24.66l0,.15.28-.17-.06-.33c-.1-.48-.18-.88-.21-.94v0Zm-10.25.19v.3h0c.8,0,.93.19,1,.36a16.69,16.69,0,0,1,.14,2.65v.11a7.85,7.85,0,0,1-.16,2c-.06.1-.26.26-1,.32h0v.31l1,0h.89l1.49.05v-.05l0-.29h0c-.64,0-.85,0-.93-.27a12,12,0,0,1-.06-1.73c0-2.39,0-3,.15-3.25s.73-.24.9-.22h.06v-.37h-.73l-1,0-.67,0h-.88v.05ZM82.65,19c0,1,.89,1.41,1.54,1.68l0,0c1.12.45,1.63.66,1.63,1.43a1,1,0,0,1-1.09.94,2.27,2.27,0,0,1-1.42-.51,1.64,1.64,0,0,1-.48-.88v0h-.37l0,.07a4.71,4.71,0,0,1,.26,1.74v0l.3,0,0,0s.06-.15.13-.15a1.84,1.84,0,0,1,.38.08h0l.09,0a2.17,2.17,0,0,0,.75.11c1.5,0,2.31-.91,2.31-1.76,0-1.21-1.19-1.68-2-2s-1.31-.55-1.31-1.16a1,1,0,0,1,1.14-1,1.7,1.7,0,0,1,1.16.47,1.33,1.33,0,0,1,.37.76v0h.31l-.08-.8a3.47,3.47,0,0,1,.09-.73v-.05l-.27,0-.2.13a4.19,4.19,0,0,0-1.23-.19C83.54,17.24,82.65,18,82.65,19Zm-4.33-1.74c1.29,0,2.19.69,2.19,1.68a1.72,1.72,0,0,1-1.37,1.53,12.33,12.33,0,0,0,2,2.46,1.5,1.5,0,0,0,.89.43h0l0,.33H82a2.82,2.82,0,0,1-1.89-.63,10,10,0,0,1-2-2.45l-.74,0v1.1a4,4,0,0,0,.11,1.2,2.24,2.24,0,0,0,.81.33h0l0,.33h-.06a9.56,9.56,0,0,0-1.34-.11c-.21,0-1.15.06-1.36.08h0l-.07-.27h0c.13,0,.63-.15.75-.37a9.66,9.66,0,0,0,.08-1.73V19.55c0-1.85-.07-1.85-.81-1.89h0l0-.36h.09l.55,0h.56c.14,0,.5,0,.84-.06h0Zm-1,2.88a4.22,4.22,0,0,0,.61,0c.55,0,1.47-.15,1.47-1.16A1.34,1.34,0,0,0,78,17.69c-.59,0-.59,0-.61,1C77.34,18.73,77.33,20.05,77.33,20.13ZM73.7,17.28c-.75,0-1.94.06-2.73.06l-2.11,0H68.8v.3h0c.52.09.55.1.59.22a12.59,12.59,0,0,1,.12,2.56,20,20,0,0,1-.14,2.47c0,.21-.3.28-.71.32h0l0,.34h0a24,24,0,0,1,2.42-.09l2.45,0,0,0a3.37,3.37,0,0,0,.46-1.5v-.05l-.29,0v0c-.21.56-.62,1.14-2.12,1.14a2.49,2.49,0,0,1-1-.18,7.56,7.56,0,0,1-.07-1.18s0-.92,0-1.13a8,8,0,0,1,.92-.06c1.2,0,1.29.1,1.45.84v0h.29v-.05c0-.81,0-1,0-1.85V19.4h-.33v0c-.12.45-.21.54-.39.57a10.63,10.63,0,0,1-1.93.06c0-.08,0-.81,0-.81a10.22,10.22,0,0,1,.1-1.43,8.64,8.64,0,0,1,1.18-.11,1.9,1.9,0,0,1,1.26.27.82.82,0,0,1,.13.65v.05l.35,0v-.06c0-.06,0-.31.07-.49l0-.22a4.26,4.26,0,0,0,0-.62v-.06Zm-13.29.07,0,.27h0c.83.1.86.1,1.53,1.47l1.38,2.82v0a14.64,14.64,0,0,1,.71,1.65v0h.3v0a13.12,13.12,0,0,1,.84-2l1.49-2.92c.35-.69.49-.86,1.16-1h0v-.34h0a10.65,10.65,0,0,1-1.13,0l-1.17,0v.05l0,.31h0c.31,0,.72,0,.72.37a2.15,2.15,0,0,1-.22.68l0,.05c-.31.69-.5,1.07-.7,1.46l-.68,1.4-.16.35a28.87,28.87,0,0,1-1.89-4.13c0-.08,0-.09.51-.15l.16,0v-.34H61.9c-.35,0-1.06,0-1.43,0h-.06Zm-4.14,0v.3h0c.8,0,.93.19,1,.36a18.16,18.16,0,0,1,.13,2.65v.11a7.85,7.85,0,0,1-.16,2c0,.1-.26.26-1,.32h-.05v.31l1,0h.89l1.49.05v-.05l0-.29h0c-.65,0-.86,0-.94-.27a12,12,0,0,1-.06-1.73c0-2.39,0-3,.15-3.25s.73-.24.9-.22h.06v-.37h-.73l-1,0-.67,0h-.88v.05Zm-3.53-.1h0v0l-.06.28h.06c1.19.07,1,.1,1,2.55,0,0,0,1.48,0,1.65l-4.26-4.44v0H48.3l-.41,0v.36h0c.86.16,1,.26,1,2l0,1.07c0,.39,0,1.6-.09,1.95s-.18.37-.4.42l-.4.08v.32l1.43-.06.69,0,.48,0v-.35h0c-1.17-.2-1.17-.33-1.15-1.33l0-2.54v-.36c.23.24,4.45,4.61,4.42,4.62l0,0h.39v-.06c0-.49,0-1.77,0-2.33,0-.83,0-2.76.08-3,0-.41.41-.51.75-.51h0v-.33h0c-.66,0-1,0-1.29,0l-.19,0-.45,0Zm-11.15.06h-.35l-1.39,0H39.8l0,.34h0c.4,0,.54,0,.63.06a3.82,3.82,0,0,1,.21,1.72l-.08,2c0,1.38.89,2.12,2.56,2.12,2.64,0,2.78-1.42,2.82-4.36l0-.89v0c0-.43,0-.61.73-.65h.05l0-.34h-.14l-1.06,0-.83,0h-.36v.36h.05a1.22,1.22,0,0,1,.75.15,3.15,3.15,0,0,1,.24,1.43v.54c0,2-.13,3.27-2,3.27-1.73,0-1.73-1.38-1.73-2V19.88c0-2.13.08-2.14,1-2.22h0V17.3h0C42.51,17.29,42,17.3,41.59,17.31Z"/><path class="cls-1" d="M3.62,6.82a.53.53,0,0,0-.37.41.64.64,0,0,0-.43.1.7.7,0,0,0-.28.45v.13A.71.71,0,0,0,3,8.56l0,.08a.57.57,0,0,0,.21.43.63.63,0,0,0,.26.15c0,.08,0,.19,0,.19l0,.23a.71.71,0,0,0,.69.49.56.56,0,0,0,.18.28.65.65,0,0,0,.66.14.69.69,0,0,0,0,.24.72.72,0,0,0,.13.42c.26.39.72.2,1,.06a.57.57,0,0,0,.58.2.93.93,0,0,0,.69-.56l.29-.05,0,0a1.26,1.26,0,0,0,.41-.6,2.53,2.53,0,0,1,.55.68,8.07,8.07,0,0,0,.48.82l.3.49a1.42,1.42,0,0,1-.67,1.06l-.19.09a9.39,9.39,0,0,0-1.29.74h0a1.09,1.09,0,0,0-.49.1,1.23,1.23,0,0,0-.5-.11,1.05,1.05,0,0,0-1,.55,1.09,1.09,0,0,0,1,1.62,1.2,1.2,0,0,0,.46-.11,1.14,1.14,0,0,0,.44.1,1.3,1.3,0,0,0,.49-.1,1.05,1.05,0,0,0,.43.11,1,1,0,0,0,.42-.11,1.08,1.08,0,0,0,.41.1,1,1,0,0,0,.47-.1.86.86,0,0,0,.84,0,1,1,0,0,0,.41.1,1.17,1.17,0,0,0,.47-.09,1.12,1.12,0,0,0,.41.1,1,1,0,0,0,.42-.11,1.08,1.08,0,0,0,.42.1,1.15,1.15,0,0,0,.46-.09,1.18,1.18,0,0,0,.42.1,1,1,0,0,0,.42-.11,1,1,0,0,0,.41.1,1.25,1.25,0,0,0,.49-.1,1.48,1.48,0,0,0,.51.11,1.08,1.08,0,0,0,1-.57,1.13,1.13,0,0,0-1.49-1.5l-.16,0c-.19-.28-.47-.41-1.12-.69l-.1,0a1.52,1.52,0,0,1-.94-.75l0,0a2.74,2.74,0,0,1-.14-.94,2.15,2.15,0,0,1,.28-1.17,1.8,1.8,0,0,1,.49-.5,1.15,1.15,0,0,0,.2.43h0l0,0,.3.16,0-.08c.13.3.31.61.66.66a.58.58,0,0,0,.35-.07.71.71,0,0,0,.5.2.62.62,0,0,0,.41-.16.66.66,0,0,0,.73-.27l.11-.33v0a.48.48,0,0,0-.11-.31l.05,0a.53.53,0,0,0,.21-.21.58.58,0,0,0,.53-.35s0-.07,0-.1l0,0a.67.67,0,0,0,.54,0,.61.61,0,0,0,.29-.34.67.67,0,0,0,.47-.12.69.69,0,0,0,.29-.49V8.52c0-.21-.1-.55-.64-.73a.65.65,0,0,0-.19-.39.69.69,0,0,0-.81-.13.54.54,0,0,0,.17-.2c.3.06.81.14,1-.3l.05-.22a1.72,1.72,0,0,0,0-.21.79.79,0,0,0,.35-.63l-.08-.35A.63.63,0,0,0,17.62,5a.4.4,0,0,0-.09-.2l0,0c0-.1.06-.22.06-.22l-.06-.28a.62.62,0,0,0-.37-.39.82.82,0,0,0-.47,0,.84.84,0,0,0,.27-.41s0-.11,0-.11h0a.64.64,0,0,0-.15-.42A.78.78,0,0,0,16,2.66a.64.64,0,0,0-.34-.2.82.82,0,0,0-.71.25l-.15-.1h-.12a.73.73,0,0,0-.21-.47.84.84,0,0,0-.59-.26.64.64,0,0,0-.23.05.66.66,0,0,0,.14-.37l-.06-.26A.67.67,0,0,0,13.35,1h0a.7.7,0,0,0-.52-.74.79.79,0,0,0-.78.29l-.17,0a.76.76,0,0,0-.45-.25c-.47-.06-.66.37-.75.64a.51.51,0,0,0-.32.07l-.15.15-.08,0A.73.73,0,0,0,9.67.36a.73.73,0,0,0-.36,0C8.93,0,8.59,0,8.38.06h0A.61.61,0,0,0,8,.65L8.08,1a.61.61,0,0,0-.16.16.79.79,0,0,0-.68.12.69.69,0,0,0-.3.58,1.21,1.21,0,0,0,.12.48.59.59,0,0,0-.21.36v.09l0,.17a.78.78,0,0,0-.48.25.58.58,0,0,0-.17.34A.62.62,0,0,0,5.67,3a.52.52,0,0,0-.36.16.61.61,0,0,0-.59-.09.71.71,0,0,0-.43.71s0,.13,0,.21a.64.64,0,0,0-.24.27h0s0,0,0,0h0a.8.8,0,0,0,0,.19H4a.61.61,0,0,0,.13.36h0a.62.62,0,0,0-.34.36.65.65,0,0,0-.55.38S3.16,6,3.16,6V6l.07.31a.87.87,0,0,0,.38.35s0,0,0,.08A.09.09,0,0,1,3.62,6.82Zm.29-.27-.11,0a.69.69,0,0,1-.35-.28L3.4,6l.08-.31,0,0a.42.42,0,0,1,.42-.26H4l0-.1a.32.32,0,0,1,.21-.26l.39-.07-.17-.17a.46.46,0,0,1-.18-.34l0-.14c0-.09.11-.14.21-.2l.08,0,0-.36a.47.47,0,0,1,.28-.46.37.37,0,0,1,.43.11l.1.09.08-.11c.08-.1.15-.15.25-.14s.3,0,.39.45l0,.1a.69.69,0,0,1,.18,0,.57.57,0,0,1,.17.1l.06-.09,0-.18h0a.41.41,0,0,1,.12-.27A.49.49,0,0,1,7,3.16H7.2L7.13,3l0-.22V2.69a.36.36,0,0,1,.18-.26l.08-.06,0-.09a1,1,0,0,1-.13-.45.44.44,0,0,1,.19-.38.58.58,0,0,1,.55-.07l.11,0,0-.1a.34.34,0,0,1,.19-.18l.09,0,0-.11L8.26.65A.38.38,0,0,1,8.48.28c.22-.1.46,0,.71.28l.05.07.09,0A.32.32,0,0,1,9.6.6c.17.05.27.24.31.53V1.2l.09,0,.07,0,.12.1.06,0,.09-.12.14-.13a.31.31,0,0,1,.26,0l.11,0,0-.11c.12-.36.25-.59.52-.55a.48.48,0,0,1,.33.18l0,0h.05A.37.37,0,0,1,12,.75l.09.06.07-.09a.57.57,0,0,1,.59-.26A.44.44,0,0,1,13.1,1v.17l.09,0a.53.53,0,0,1,.28.25l0,.2a.68.68,0,0,1-.23.37l0,.05v.07l.06.34.16-.13a.53.53,0,0,1,.79,0,.45.45,0,0,1,.14.34l0,.18.19,0,.12,0,.18.11.07,0L15,3c.17-.15.37-.3.57-.25a.4.4,0,0,1,.26.17l0,.07.08,0a.55.55,0,0,1,.66.15.35.35,0,0,1,.1.25v.1a.76.76,0,0,1-.25.31l-.06,0,.08.38.13-.05a.64.64,0,0,1,.45,0,.43.43,0,0,1,.23.23l.05.24s-.07.18-.07.18l0,.09.07.07.07,0a.7.7,0,0,1,0,.17v.14l.13,0c.3-.06.46,0,.56.22l.07.3a.55.55,0,0,1-.31.45l-.08,0,0,.11,0,.17,0,.16c-.13.26-.5.21-.83.14l-.11,0-.05.13a.34.34,0,0,1-.24.22l-.11,0,0,.13,0,.1v.07l0,.25.22-.13c.35-.2.58-.21.76,0a.42.42,0,0,1,.13.31V8l.09,0c.35.09.53.27.53.51v.11a.45.45,0,0,1-.18.31.5.5,0,0,1-.39.07h-.11l0,.11a.37.37,0,0,1-.2.26.54.54,0,0,1-.43,0l-.07,0-.07.07-.11.09,0,0,0,.12a.34.34,0,0,1-.37.19h-.08l0,.08A.32.32,0,0,1,16,10l-.14,0-.07,0,0,.16,0,.07a.35.35,0,0,1,.12.25l-.08.25c-.06.08-.19.21-.52.13h-.07l0,0a.43.43,0,0,1-.3.14.57.57,0,0,1-.38-.18l-.07-.06-.08,0a.42.42,0,0,1-.27.06c-.24,0-.37-.27-.47-.51l0,0h-.06l-.29-.15a1.45,1.45,0,0,1-.18-.49l0-.16-.14.08a2,2,0,0,0-.7.67,2.45,2.45,0,0,0-.33,1.31A2.81,2.81,0,0,0,12,12.76l0,0a1.84,1.84,0,0,0,1.06.86l.1,0c.67.28.9.39,1,.63l0,0,.31.09.05,0a.77.77,0,0,1,.4-.1.89.89,0,0,1,.78.38.9.9,0,0,1,0,.87.85.85,0,0,1-.81.44,1.09,1.09,0,0,1-.46-.12l-.06,0,0,0a.93.93,0,0,1-.43.1,1,1,0,0,1-.35-.09l-.06,0-.05,0a.69.69,0,0,1-.37.1.87.87,0,0,1-.37-.11l0,0-.05,0a1,1,0,0,1-.41.09,1.06,1.06,0,0,1-.36-.09l-.05,0,0,0a.72.72,0,0,1-.38.1,1,1,0,0,1-.36-.1l-.05,0-.06,0a1,1,0,0,1-.41.09,1,1,0,0,1-.35-.09l-.06,0-.05,0a.69.69,0,0,1-.37.1.87.87,0,0,1-.37-.11l-.05,0,0,0A1.05,1.05,0,0,1,8.9,16a1,1,0,0,1-.35-.09l-.06,0-.05,0a.69.69,0,0,1-.37.1.87.87,0,0,1-.37-.11l0,0-.05,0a1,1,0,0,1-.45.1,1,1,0,0,1-.39-.1l0,0,0,0a.8.8,0,0,1-.41.1.85.85,0,0,1-.81-1.26.83.83,0,0,1,.8-.43,1.27,1.27,0,0,1,.46.11l0,0,0,0a.91.91,0,0,1,.42-.1h.09l0,0a9.92,9.92,0,0,1,1.29-.74l.19-.09a1.67,1.67,0,0,0,.81-1.27v-.05l-.35-.57c-.29-.47-.42-.69-.47-.79a2.7,2.7,0,0,0-.74-.89L8,9.83,7.9,10a1.13,1.13,0,0,1-.38.64l-.19,0-.12-.13-.07.18a.73.73,0,0,1-.56.52.34.34,0,0,1-.4-.16l0-.1L6,11c-.32.16-.62.28-.77.05a.46.46,0,0,1-.09-.27.64.64,0,0,1,.22-.46l-.16-.19c-.31.23-.56.26-.75.08A.45.45,0,0,1,4.33,10l0-.1h-.1c-.3,0-.47-.1-.55-.32l0-.16a1.24,1.24,0,0,1,0-.16l.24-.19L3.63,9a.48.48,0,0,1-.3-.13.33.33,0,0,1-.12-.25l0-.2-.09-.06c-.26-.1-.38-.25-.38-.46V7.8A.41.41,0,0,1,3,7.53a.48.48,0,0,1,.35,0h.13V7.36A.31.31,0,0,1,3.71,7l.22,0L4,7l-.07-.07a.84.84,0,0,1-.08-.21A.8.8,0,0,1,3.91,6.55Z"/><path class="cls-1" d="M9.27,15.48a.64.64,0,0,0,.52.27c.22,0,.31-.09.31-.1a.12.12,0,0,1,.17,0,.51.51,0,0,0,.35.11.76.76,0,0,0,.25,0,.34.34,0,0,1-.08-.09l-.5-.73a.66.66,0,0,0-.52-.26.45.45,0,0,0-.31.09.12.12,0,0,1-.17,0,.62.62,0,0,0-.36-.1.75.75,0,0,0-.24,0,.3.3,0,0,1,.08.08Z"/><path class="cls-1" d="M5.69,15.48a.66.66,0,0,1,0-.59.59.59,0,0,1,.56-.27.86.86,0,0,1,.62.26l.5.73s.06.05.08.08a.84.84,0,0,1-.29.05.7.7,0,0,1-.39-.11.12.12,0,0,0-.16,0,.54.54,0,0,1-.35.1A.64.64,0,0,1,5.69,15.48Z"/><path class="cls-1" d="M8.47,4.62a4.56,4.56,0,0,1,.39-.25,3.35,3.35,0,0,1,.54-.24.63.63,0,0,0-.6-.41l-.13,0s0,0,0,0-.14-.12-.18-.1,0,.13,0,.17v.14l0,.08A.6.6,0,0,0,8.47,4.62Z"/><path class="cls-1" d="M11,3.64h0s0,0,0,0Z"/><path class="cls-1" d="M6.09,6.11l0,.11-.2.09a.12.12,0,0,1-.1,0h0c-.11,0-.19.06-.22.16s.07.21.19.28l.12.14a.29.29,0,0,1,0,.09.76.76,0,0,1,.46,0l.1,0a.69.69,0,0,1,.5.16c0-.09.12-.22.26-.18a.59.59,0,0,1,.41.37s.07-.1.12-.12v0a.29.29,0,0,1,0-.19l.08-.08h0a1.55,1.55,0,0,1-.19-.23,1.26,1.26,0,0,1-.88.06.43.43,0,0,1-.28-.37A.92.92,0,0,1,6.15,6S6.11,6,6.09,6.11Z"/><path class="cls-1" d="M5.48,7.43c-.08,0-.15,0-.19.07s0,.12,0,.18,0,0,0,.05l0,.13.1.27a.92.92,0,0,0,.36.33l.44-.73a.44.44,0,0,1-.15-.32.35.35,0,0,1,0-.17.51.51,0,0,0-.51.13l-.08,0Z"/><path class="cls-1" d="M12.77,6.51l0,0a1.19,1.19,0,0,1,.54-.36,1.06,1.06,0,0,1-.13-.45.9.9,0,0,1-.41.36.21.21,0,0,1,.08.12.22.22,0,0,1,0,.08.46.46,0,0,1-.08.24Z"/><path class="cls-1" d="M14.66,7.07a.08.08,0,0,0,0,0v0Z"/><path class="cls-1" d="M13.68,7c0,.06-.35.24-.64.33a2.71,2.71,0,0,0-.39.17h0a1.17,1.17,0,0,0-.28.3,1.94,1.94,0,0,0,.63.16l0-.06a.22.22,0,0,1,.11-.19h.21a.68.68,0,0,0,.56,0l0,0-.07-.17s0,0,0-.07,0,0,.07,0h.22l.24,0a.07.07,0,0,1,.06,0c.06,0,.1,0,.11-.09l0-.09,0-.15c0-.1.09-.15.17-.19s.25-.15.19-.31-.25,0-.35,0h-.24l-.1-.13A.1.1,0,0,0,14,6.33s-.17.07-.22.11-.17.11-.26.07l-.11-.11,0,0s-.13,0-.42.3l-.22.15s-.1,0-.14-.1-.28.35-.37.63c.16-.06.5-.2.74-.27S13.66,6.89,13.68,7Z"/><path class="cls-1" d="M6.48,5.25l-.09,0H6.28s0,0-.06,0l0,0,0,.15h0a.8.8,0,0,0,.37.7h0a.34.34,0,0,0,.14-.1,2,2,0,0,0,.44-.8A1.35,1.35,0,0,0,6.48,5.25Z"/><path class="cls-1" d="M16.83,5.11l-.09.06a.37.37,0,0,1,.21.35v0c0,.34-.53.35-.86.35a.45.45,0,0,1,.08.22.23.23,0,0,1,0,.11c-.16.38-.81.36-1.12.34a.35.35,0,0,0,0,.06.51.51,0,0,1,0,.13.42.42,0,0,1,.19.07l0,0A1.58,1.58,0,0,1,16,7c0-.07.14-.06.23,0s.33,0,.35-.07V6.77a.22.22,0,0,1,.08-.23c.08-.06.2,0,.39,0s.48.11.55,0,0-.09-.06-.13a.27.27,0,0,1-.07-.26L17.61,6c.24-.13.36-.24.25-.47s-.14-.11-.35,0-.29.09-.35-.06V5.26c0-.08,0-.12,0-.15s-.06-.05-.21-.07Z"/><path class="cls-1" d="M13.11,5.36l.1.11a.77.77,0,0,1,.1-.28.68.68,0,0,1,.6-.35,1,1,0,0,1,.64-.13,1,1,0,0,1,.33-.39s0-.11-.11-.19-.25,0-.42.08-.2.11-.29.08a1,1,0,0,1-.12-.11A1.06,1.06,0,0,0,13.78,4L13.62,4a.3.3,0,0,1,.05.18.45.45,0,0,1,0,.11.71.71,0,0,1-.28.31.65.65,0,0,1,0,.19A.77.77,0,0,1,13.11,5.36Z"/><path class="cls-1" d="M12.18,4.13a1.15,1.15,0,0,0-.1-.63l0-.06c0-.06,0-.1-.1-.12s-.12,0-.17.06l-.08,0a.92.92,0,0,0-.53.47,3.41,3.41,0,0,1,1,.23Z"/><path class="cls-1" d="M15,4.92l-.08,0-.16,0h0a.83.83,0,0,0-.69.09.8.8,0,0,0,.64.82.72.72,0,0,0,.27-.58s0-.08,0-.11V5.12l0-.1S15,4.93,15,4.92Z"/><path class="cls-1" d="M12.42,8.19c.07,0,.1,0,.11-.12a1.46,1.46,0,0,1-.3-.11A4.59,4.59,0,0,0,12,8.4a2.78,2.78,0,0,0-.11.81s0,.07,0,.1L12.2,9a.54.54,0,0,1,0-.61Z"/><path class="cls-1" d="M14.19,7.83c.08-.06.13-.1.13-.14v0s0,0,0-.06H14.1s0,.05,0,.07a.23.23,0,0,1-.08.16.83.83,0,0,1-.78.08h0a.26.26,0,0,1-.13.22.67.67,0,0,1-.35,0,.37.37,0,0,1-.24.29l-.12.08a.28.28,0,0,0,0,.29,2.32,2.32,0,0,1,.33-.27,3.6,3.6,0,0,1,.35-.2s.37-.15.41-.07-.26.26-.3.28a.54.54,0,0,0-.25.19,4,4,0,0,0-.2.42,1.32,1.32,0,0,1,.36,0l.17,0A1.31,1.31,0,0,0,13.57,9l0,0,0-.07a.25.25,0,0,1-.09-.16.16.16,0,0,1,0-.1l.25-.07c.26,0,.4-.08.41-.21v0a.14.14,0,0,0-.05-.11A.21.21,0,0,1,14.05,8a.13.13,0,0,1,0-.06Z"/><path class="cls-1" d="M16.2,4.34c0-.08,0-.11-.09-.12s-.28.11-.42.27-.17.21-.28.18l-.16-.09c-.07-.06-.13-.1-.21-.08s-.16.13-.22.22a.26.26,0,0,1,.3,0,.31.31,0,0,1,0,.35s0,.05,0,.07a1.43,1.43,0,0,1,0,.28,3,3,0,0,1,.7-.41c.07,0-.29.44-.64.65L15,5.8a1,1,0,0,1-.21.25.5.5,0,0,1-.05.23.29.29,0,0,1,.16.07H15c.2,0,.82,0,.93-.2,0-.05-.06-.17-.1-.21s-.08-.12-.05-.19.1-.08.25-.08c.59,0,.68-.07.69-.13s-.06-.17-.16-.2l-.12-.08s0,0,0-.1.14-.17.26-.25l.1-.07,0,0c.16-.12.24-.23.17-.39a.14.14,0,0,0-.07-.08c-.13,0-.36.06-.47.11l-.14,0C16.24,4.48,16.22,4.4,16.2,4.34Z"/><path class="cls-1" d="M16.06,7.29c-.12-.15-.42-.21-.85-.16a1.46,1.46,0,0,0,0,.59,1.09,1.09,0,0,0,.18.45l0,.05a.74.74,0,0,0,.67-.53l0-.1.11-.09.07-.06a.29.29,0,0,0-.11-.06A.74.74,0,0,1,16.06,7.29Z"/><path class="cls-1" d="M11.74,7.56l.07,0L12,7.46A2.91,2.91,0,0,1,12.1,7l-.41.18a1.55,1.55,0,0,1,.05.36Z"/><path class="cls-1" d="M12.63,6.2h0l-.14-.07s-.06,0-.06,0,0,0,0-.06l.17-.14c.11-.06.42-.23.39-.34l-.07,0-.1-.1a.15.15,0,0,1,.09-.16c.18-.14.35-.31.26-.53h-.09l-.17,0c-.07,0-.08-.14-.09-.25s0-.21-.05-.23-.08,0-.32.19l-.06,0a.17.17,0,0,1-.15,0l-.06,0c-.15,0-.2.35-.21.46L11.92,5c-.06.06-.12,0-.21,0l0,0a.28.28,0,0,0-.15.13.27.27,0,0,0,0,.13,1.24,1.24,0,0,0,.12.46.42.42,0,0,1,0,.15.1.1,0,0,1-.07.1l-.09,0a.09.09,0,0,0-.09,0,.24.24,0,0,0-.05.18,1.43,1.43,0,0,0,.17.56l.06-.2c.07-.24.47-.94.57-.9s-.32.76-.38,1a3.15,3.15,0,0,0-.09.36C12,6.81,12.69,6.45,12.63,6.2Z"/><path class="cls-1" d="M8.81,7A.47.47,0,0,1,9,6.64a.56.56,0,0,1-.09-.3A.45.45,0,0,1,9.05,6C9,6,8.89,6,8.78,6a.18.18,0,0,1-.19,0s0,0,0,0-.16-.35-.26-.39H8.24c-.19.08-.2.3-.19.51A.24.24,0,0,1,8,6.3l-.1.06c-.06,0-.07,0-.08,0s.06.22.17.33.12.12.11.2A1.29,1.29,0,0,1,8,7.11a.23.23,0,0,0,0,.14.43.43,0,0,0,0,0,1.08,1.08,0,0,1,.26.57l0,0,.18,0,.06,0a2.29,2.29,0,0,1-.06-.32c-.06-.52,0-.69,0-.72s.09.18.18.72a5.65,5.65,0,0,0,.14.6L9,8.28c.09-.06.31-.24.33-.39V7.81h0a1.11,1.11,0,0,1,0-.17.35.35,0,0,1,.08-.24C9.14,7.36,8.81,7.29,8.81,7Z"/><path class="cls-1" d="M10.14,10.86a1.13,1.13,0,0,0,0-.23,5.24,5.24,0,0,0-.09-.86c-.17-.92-.65-1.06-.89-1.13h0a1.68,1.68,0,0,1,.1.61v.12A2.13,2.13,0,0,0,10.14,10.86Z"/><path class="cls-1" d="M7.59,8.33A4.07,4.07,0,0,0,8,8.62l0,0h0c.19.12.39.2.43.17V8.76c0-.48-.13-.66-.17-.69a.3.3,0,0,0-.09.1.13.13,0,0,1-.14.06A.12.12,0,0,1,8,8.11a1,1,0,0,0-.22-.67.43.43,0,0,0-.11.21.12.12,0,0,1-.13.08.12.12,0,0,1-.1-.11.44.44,0,0,0-.3-.41.32.32,0,0,1,0,.07c0,.06-.09.19-.21.14l-.07,0c-.07,0-.25-.18-.37-.15s0,0-.08.07,0,.21.12.34l.11.17c0,.1-.09.15-.15.18s-.08,0-.08.07.06.14.28.17l.17.07c.09.1,0,.2-.07.26s-.08.08-.08,0a.4.4,0,0,0,.38.22h.19c.11,0,.22,0,.24.12l-.07.19a.44.44,0,0,1-.07.08c.09.13.4.12.84,0a1.08,1.08,0,0,0-.27-.35l0,0-.44-.3s-.35-.31-.3-.4S7.59,8.33,7.59,8.33Z"/><path class="cls-1" d="M10.31,8.26h0a1.73,1.73,0,0,0,.24.8s.37.61.38.64a4.2,4.2,0,0,0,.16-.7c0-.05,0-.1,0-.16A2.69,2.69,0,0,0,11,8.3H11A1,1,0,0,1,10.31,8.26Z"/><path class="cls-1" d="M11.39,5.71a1.27,1.27,0,0,1-.13-.51.52.52,0,0,1,0-.21.36.36,0,0,0-.15-.23s0,0-.11.08-.12.15-.23.12l-.17-.17c-.15-.2-.32-.4-.51-.35s-.17.22-.15.5c0,.13,0,.22-.1.28s-.15.06-.16.13a.35.35,0,0,0,.17.32l0,0c.22,0,.43.34.52.54.11-.07.3-.19.45-.06a1.18,1.18,0,0,1,.27.67h.17a1.6,1.6,0,0,1-.22-.71.49.49,0,0,1,.11-.33A.35.35,0,0,1,11.39,5.71Z"/><path class="cls-1" d="M11.17,7.78a4.66,4.66,0,0,0,.15-.69h-.1a.28.28,0,0,1-.22,0A.17.17,0,0,1,11,7a1.22,1.22,0,0,0-.2-.58s-.14.06-.17.09-.14.09-.22.06a.16.16,0,0,1-.08-.08c-.08-.23-.33-.53-.43-.51s-.12.19-.12.19a.11.11,0,0,1-.08.11.12.12,0,0,1-.13,0s-.13-.13-.3,0,0,.4,0,.41a.1.1,0,0,1,0,.09.12.12,0,0,1,0,.08A.33.33,0,0,0,9.05,7c0,.1.13.14.35.18s.23,0,.24.15a.18.18,0,0,1-.07.17c-.06,0-.11.11-.05.29s.07.1.08.1.3,0,.42-.08l.22,0s0,0,.06,0,0,0,0,.07a1.16,1.16,0,0,1,0,.17L10.4,8a.76.76,0,0,0,.53,0h0a.56.56,0,0,0,0-.12s0,0,0,0a1.53,1.53,0,0,0-.33-.44c-.23-.2-.55-.42-.52-.48s.4.14.67.34a2.26,2.26,0,0,1,.3.28A.79.79,0,0,0,11.17,7.78Z"/><path class="cls-1" d="M11.07,14.5l0,0a.46.46,0,0,0-.1-.28.23.23,0,0,0-.16-.06.4.4,0,0,0-.34.27h.14A.79.79,0,0,1,11.07,14.5Z"/><path class="cls-1" d="M13.74,14.88a.66.66,0,0,0-.52-.26.45.45,0,0,0-.31.09.11.11,0,0,1-.16,0,.71.71,0,0,0-.36-.1.74.74,0,0,0-.26,0l.07.08.5.73a.64.64,0,0,0,.52.27.4.4,0,0,0,.31-.1.11.11,0,0,1,.16,0,.69.69,0,0,0,.63.06.27.27,0,0,1-.08-.07Z"/><path class="cls-1" d="M8.86,14.4h.08a.85.85,0,0,1,.42.11.41.41,0,0,1,.2-.09v-.14A1,1,0,0,0,8.86,14.4Z"/><path class="cls-1" d="M6.29,10.24c0-.06.25-.28.37-.38a2,2,0,0,1,.66-.37.33.33,0,0,1-.17-.16.19.19,0,0,1,0-.08.35.35,0,0,1,.06-.17H7.05a.17.17,0,0,0-.15,0L7,9.25a.23.23,0,0,1,0,.18.12.12,0,0,1-.07.07.16.16,0,0,1-.15,0c-.1-.05-.38-.2-.57-.1l0,0,.06.06s.09.09.09.16a.13.13,0,0,1,0,.08c-.06.07-.14.05-.22,0a.34.34,0,0,0-.37.11c-.09.13,0,.17,0,.25a.19.19,0,0,1,0,.23l-.11.12c-.2.19-.29.32-.19.47s.33-.09.43-.14l.27-.1a.23.23,0,0,1,.23.21c0,.09,0,.1.13.08s.31-.23.38-.42a.72.72,0,0,1,.19-.33.18.18,0,0,1,.15,0,.24.24,0,0,1,.15.16v0a1.91,1.91,0,0,0,.3-.68l0,0a2.66,2.66,0,0,0-.39.11A8.77,8.77,0,0,1,6.29,10.24Z"/><path class="cls-1" d="M6,9.48a.24.24,0,0,1,0-.09v0a.25.25,0,0,1,.12-.16.63.63,0,0,1-.21-.13.37.37,0,0,1-.13-.4,1.13,1.13,0,0,1-.28-.21h0a.38.38,0,0,0-.37,0,1,1,0,0,0,0,.19A.35.35,0,0,1,5,9c-.1.08-.21,0-.31-.07s-.26-.16-.34-.11l0,.13v.26l-.2.11c-.08,0-.18.05-.2.1a.14.14,0,0,0,0,.11c.05.12.16.14.37.13l.23.05.07.19a.19.19,0,0,0,.06.17c.13.12.43-.12.54-.21l.16-.08s.05,0,.08,0l0,0a.53.53,0,0,1,.06-.1A.51.51,0,0,1,6,9.48Z"/><path class="cls-1" d="M17.49,8.22l-.12,0c-.08,0-.09-.12-.05-.23a.16.16,0,0,0,0-.21c-.12-.12-.42.07-.56.16s-.15.1-.22.07a.25.25,0,0,1-.1-.16.22.22,0,0,0-.07-.13l0,0,0,0a.82.82,0,0,1-.26.43c.33,0,.81.12.81.21s-.82,0-1,0h-.14l-.18,0a.46.46,0,0,0,.07.13l.15,0a.59.59,0,0,1,.49,0,.41.41,0,0,1,.16.29.38.38,0,0,1-.05.17h0a.69.69,0,0,1,.23.16.3.3,0,0,0,0-.09L16.62,9c.07-.07.15,0,.26,0s.27.12.33.09.06-.1.07-.19,0-.16.08-.2h.2a.53.53,0,0,0,.33,0A.21.21,0,0,0,18,8.56C18,8.37,17.86,8.28,17.49,8.22Z"/><path class="cls-1" d="M4.78,8.69l0,0V8.65s0-.07,0-.1a.31.31,0,0,1,.11-.28l-.14,0c-.21,0-.86,0-.86-.12s.73-.13,1-.1a1.92,1.92,0,0,1,.32.09l-.07-.2s0-.1,0-.12a.08.08,0,0,1,0,0h0c-.15-.23-.35-.4-.43-.38s-.07,0-.09.12a.18.18,0,0,1-.13.17c-.08,0-.13,0-.22-.11s-.29-.25-.42-.22-.07,0,0,.19,0,.22-.07.28H3.41a.52.52,0,0,0-.3,0,.15.15,0,0,0,0,.11c0,.17.11.24.37.31l.17.08c.07.09,0,.19,0,.24s-.09.15-.05.19.27.06.42,0l.17-.08.11,0A.55.55,0,0,1,4.78,8.69Z"/><path class="cls-1" d="M13,9.34a.89.89,0,0,0-.46.07.11.11,0,0,1-.12,0,.12.12,0,0,1,0-.1v0a2,2,0,0,1,.11-.3,8.77,8.77,0,0,0-.69.83.14.14,0,0,1-.16,0,.14.14,0,0,1-.06-.11s0,0,0,0a2.06,2.06,0,0,0,.06-.5,3,3,0,0,1,.13-.88,3.49,3.49,0,0,1,.37-.7l-.26.12c-.21.11-.29.15-.36.06l-.05-.25a.31.31,0,0,0,0-.09,3.61,3.61,0,0,1-.12.47.12.12,0,0,1-.14.09l-.06,0h0a2.5,2.5,0,0,1,.15.85V9s-.15,1-.34,1.08a.13.13,0,0,1-.13-.05l-.17-.29-.34-.56a2.05,2.05,0,0,1-.28-1.13V8a.71.71,0,0,1-.55.07l0,0a1.21,1.21,0,0,1-.28.34h.06A1.45,1.45,0,0,1,10.3,9.73a5.76,5.76,0,0,1,.1.9.63.63,0,0,1-.12.47.16.16,0,0,1-.13,0A2.35,2.35,0,0,1,9,9.32c0-.72-.23-.91-.3-.92h0c0,.12,0,.25,0,.36A.3.3,0,0,1,8.61,9a.44.44,0,0,1-.23,0,.35.35,0,0,1,.06.18v0a.23.23,0,0,1-.14.15l-.36.1a2.55,2.55,0,0,1,1.15,1.2c0,.09.27.45.45.74.39.63.4.66.39.72a2,2,0,0,1-1,1.57l-.19.09a12.84,12.84,0,0,0-1.16.64l0,0a.68.68,0,0,1,.42-.12.89.89,0,0,1,.42.12.05.05,0,0,1,0,0A1.05,1.05,0,0,1,9.59,14a.79.79,0,0,1,.08-.23l.14-.26a5,5,0,0,1,.44-.81c.06,0,0,.45-.23.93a1.28,1.28,0,0,0-.14.25.65.65,0,0,0-.08.27v0h0a.54.54,0,0,0,0,.18.93.93,0,0,1,.4.12h0v0c.13-.37.36-.58.63-.58a.45.45,0,0,1,.33.14.64.64,0,0,1,.16.36h.15a.9.9,0,0,1,.44.13.9.9,0,0,1,.82,0v0c-.09-.23-.27-.3-.51-.4a1.49,1.49,0,0,1-.93-.89,3.55,3.55,0,0,1-.18-1,3.1,3.1,0,0,1,.09-1,3.7,3.7,0,0,1,.14,1,3.49,3.49,0,0,0,.17.94,1.24,1.24,0,0,0,.8.75,1,1,0,0,1,.6.46.83.83,0,0,1,.07.14.69.69,0,0,1,.22,0,.83.83,0,0,1,.43.13A.78.78,0,0,1,14,14.4a2.81,2.81,0,0,0-.87-.44l-.1-.05a2,2,0,0,1-1.2-1l0,0A3.31,3.31,0,0,1,12,10.24,2.28,2.28,0,0,1,13,9.35Z"/><path class="cls-1" d="M16.21,9.26c-.06,0-.12,0-.14-.12l0-.21c0-.07,0-.09-.05-.17s-.21,0-.29,0h-.27a.35.35,0,0,1-.15-.12l-.05,0a1.3,1.3,0,0,1-1-.09.93.93,0,0,1-.48.15h0l.06.14a.91.91,0,0,1,.67,0,.2.2,0,0,1,.09.18s0,0,0,.07l.15,0c.29,0,.48.06.55.16a.24.24,0,0,1,.06.15.48.48,0,0,1-.06.18l.07,0,.19.06.09,0a.39.39,0,0,0,.22,0s0,0,0-.08l.07-.17.21,0c.14,0,.18,0,.2,0S16.37,9.33,16.21,9.26Z"/><path class="cls-1" d="M15.51,10.46l-.12-.15v0a.24.24,0,0,1,.09-.17l0,0a.93.93,0,0,0-.24-.09c-.13,0-.22-.07-.26-.14s0-.05,0-.07a.39.39,0,0,1,.05-.14.27.27,0,0,0,0-.08h0a1.27,1.27,0,0,0-.39-.08c-.25,0-.36,0-.38-.16l0-.12v0a1.32,1.32,0,0,0-.79.1,2.92,2.92,0,0,1,.46.29c.15.11.37.37.3.43s-.3-.15-.43-.24a2.43,2.43,0,0,0-.61-.29,1.78,1.78,0,0,0,.2.69.18.18,0,0,1,.2-.07c.07,0,.1.1.16.25s.17.42.28.43.13,0,.15-.07.07-.13.17-.11l.16.11c.07.08.19.21.28.2a.19.19,0,0,0,.16-.09.21.21,0,0,1,.16-.1l.1,0c.15.05.24.06.3,0a.09.09,0,0,0,0-.06S15.6,10.52,15.51,10.46Z"/><path class="cls-1" d="M11.84,1.25a.25.25,0,0,1,.28.09.65.65,0,0,1,.12.38.92.92,0,0,1-.22.55.25.25,0,0,1,.23.17.18.18,0,0,1,0,.1,1,1,0,0,1-.11.4.45.45,0,0,1,.25,0v0c.07-.18.18-.5.43-.59H13a.15.15,0,0,0,0-.1s0,0,0,0a.12.12,0,0,1-.11-.09A.13.13,0,0,1,12.88,2c.15-.09.39-.31.33-.42A.26.26,0,0,0,13,1.37l-.12-.05a.24.24,0,0,1,0-.21c0-.22,0-.35-.11-.38s-.25.09-.37.25-.14.18-.24.16L12,1.05A.33.33,0,0,0,11.84,1a1.1,1.1,0,0,1,0,.18A.36.36,0,0,1,11.84,1.25Z"/><path class="cls-1" d="M10.69,2.45a.53.53,0,0,1,.25.46,1.14,1.14,0,0,1-.14.48H11c0-.09.11-.42.18-.74a2.54,2.54,0,0,1,.15-.61c.09,0,.09.24.06.56a6.43,6.43,0,0,1-.17.84,1.61,1.61,0,0,1,.45-.27.6.6,0,0,1,.14-.07A1.33,1.33,0,0,0,12,2.53s-.06,0-.15,0a.17.17,0,0,1-.18-.08c0-.08,0-.13.07-.2s.33-.47.16-.74a.26.26,0,0,0-.12.05c-.05,0-.12.06-.19,0a.12.12,0,0,1,0-.14.76.76,0,0,0,0-.53.26.26,0,0,0-.19-.12c-.1,0-.19.25-.23.39s-.07.22-.14.26h-.23c-.07,0-.11,0-.15,0s0,.35.12.52.13.24.08.32a.19.19,0,0,1-.12.07.32.32,0,0,0-.25.09s0,0,0,.07A.22.22,0,0,1,10.69,2.45Z"/><path class="cls-1" d="M13.06,2.63A.27.27,0,0,0,13,2.51h-.06c-.16.06-.25.31-.3.45s-.07.2-.17.2H12.4a.17.17,0,0,0-.2,0,.71.71,0,0,1,.09.17s0,0,0,0a1.25,1.25,0,0,1,.12.46l.22-.26c.22-.21.48-.39.53-.32s-.16.25-.35.46a1.56,1.56,0,0,0-.16.2.24.24,0,0,1,.22,0c.15.08.17.28.18.42v.06h.13a.47.47,0,0,0,.23-.21c0-.06,0-.09,0-.14A.2.2,0,0,1,13.34,4a.22.22,0,0,1,.09-.1,1.45,1.45,0,0,0,.28-.14l0,0c.15-.1.21-.18.22-.24a.16.16,0,0,0-.09-.15s-.12-.08-.12-.17l.14-.21c.09-.07.21-.19.22-.28a.19.19,0,0,0-.07-.14.26.26,0,0,0-.21-.1c-.14,0-.28.15-.38.26l-.21.14C13.13,2.82,13.09,2.71,13.06,2.63Z"/><path class="cls-1" d="M14.14,4.05l.09,0a.72.72,0,0,1,.55-.13A1.25,1.25,0,0,1,15,3.72c.22-.1.48-.2.52-.15s-.19.19-.4.32L15,4a.48.48,0,0,1,.14.26.56.56,0,0,1,.28.13l0,0,.07-.08c.12-.15.33-.41.64-.35a.44.44,0,0,0-.07-.22.28.28,0,0,1,0-.09.14.14,0,0,1,.06-.07c.09,0,.27-.17.29-.28a.14.14,0,0,0,0-.1c-.11-.13-.28-.09-.45,0l-.19,0-.11-.12A.2.2,0,0,0,15.49,3c-.09,0-.26.13-.36.21l-.23.14-.18-.12-.1-.08a1,1,0,0,0-.26.27l-.1.1H14.2a.49.49,0,0,1-.22.32A1.25,1.25,0,0,1,14.14,4.05Z"/><path class="cls-1" d="M5,6.81c.1.13,0,.31-.08.42l.16.15h0a.48.48,0,0,1,.41-.19l.12-.08a.06.06,0,0,0,0,0s0,0,0-.07l0,0a.54.54,0,0,1-.3-.43.34.34,0,0,1,0-.1.43.43,0,0,1,.25-.3.9.9,0,0,1-.06-.22.68.68,0,0,1,0-.12h0l-.15,0c-.12,0-.25.1-.35,0l-.07-.1-.18-.23c-.11-.1-.28-.19-.4-.14s0,.06,0,.19,0,.16-.06.21H4c-.17,0-.26,0-.33.08a.24.24,0,0,0,0,.23c.08.17.38.25.49.26a.13.13,0,0,1,.1.09.13.13,0,0,1,0,.13.3.3,0,0,0-.12.16l0,.08s.11,0,.28,0S4.85,6.59,5,6.81Z"/><path class="cls-1" d="M9.69,2.36c-.12,0-.11.26-.09.46s0,.21,0,.26a.2.2,0,0,1-.19,0c-.07,0-.09,0-.11,0s.05.2.24.42.11.13.1.19,0,.06-.07.1a1,1,0,0,1,.11.21.17.17,0,0,1,.13.07.55.55,0,0,1,.1.17A.34.34,0,0,1,10,4.22c0-.08,0-.2-.07-.31a1.44,1.44,0,0,1,0-.62c.08,0,.15.32.22.61a2.46,2.46,0,0,0,.09.31.63.63,0,0,1,.31.17.52.52,0,0,1,.1-.34.48.48,0,0,1,.24-.14A.71.71,0,0,1,11,3.65H10.9c-.13,0-.33,0-.36-.18l.05-.17c.13-.29.18-.5,0-.65l-.09.08a.22.22,0,0,1-.19.1l-.15-.14C10,2.55,9.85,2.32,9.69,2.36Z"/><path class="cls-1" d="M8.11,3.31,8,3.53c0,.05-.09.08-.09.11s0,.06.35.1c0-.12,0-.32.13-.39a.34.34,0,0,1,.31,0,2.26,2.26,0,0,0-.14-.26c-.08-.13-.3-.39-.22-.47s.36.24.45.4A2.41,2.41,0,0,1,9,3.5a.84.84,0,0,1,.23.07A.68.68,0,0,1,9,3.19a.25.25,0,0,1,0-.12.29.29,0,0,1,.33-.18V2.84c0-.06,0-.14,0-.22a.86.86,0,0,1,0-.16.16.16,0,0,0-.21,0,.15.15,0,0,1-.15,0c-.08,0-.08-.1-.09-.21s0-.58-.21-.61-.11.1-.14.17S8.46,2,8.37,2,8.24,2,8.16,1.9c-.23-.25-.41-.37-.62-.22s0,.37.08.6l.06.19a.2.2,0,0,1-.14.11c-.09,0-.16.07-.17.15s.2.29.46.37S8.12,3.18,8.11,3.31Z"/><path class="cls-1" d="M5,5.56H5l-.17-.21h0a.66.66,0,0,1,.22-.13.14.14,0,0,0,.13-.09c0-.1,0-.14-.15-.18-.48-.22-.55-.35-.52-.42s.1-.08.15-.11l.14-.09c0-.06,0-.13,0-.25s0-.42.08-.47.12,0,.22.15l.18.15c.14,0,.21-.1.26-.2s.06-.13.09-.14.14.31.16.43,0,.26.13.29a.27.27,0,0,0,.26-.12s.06-.08.08-.07.09.24.1.37,0,.25.09.31a.25.25,0,0,0,.31,0,.74.74,0,0,0,.45.14h.11a.3.3,0,0,1,0,.15,1.5,1.5,0,0,0-.89,0H6.28L6,5.14l0,0a2.62,2.62,0,0,1-.39-.37c-.19-.24-.28-.52-.35-.49s0,.43.14.57A2.32,2.32,0,0,0,6,5.44v0a1.2,1.2,0,0,0,0,.31.35.35,0,0,0-.21.28v0H5.79a.74.74,0,0,1-.07-.21c0-.12,0-.23-.13-.28s-.23,0-.36,0l-.13,0Z"/><path class="cls-1" d="M7,4.12,7,4.33l-.05.13c0,.15.08.18.34.19s.28,0,.31.16a.45.45,0,0,1,0,.2h0a.68.68,0,0,1,.42.4l.1-.06h.24a.9.9,0,0,1,.35.43.41.41,0,0,1,.53.12.41.41,0,0,1,.27,0,.45.45,0,0,1,.11-.17.52.52,0,0,1-.16-.33,1.09,1.09,0,0,1-.83,0A.69.69,0,0,1,8.23,5a.24.24,0,0,1,0-.22h0A.88.88,0,0,1,8.17,4c-.25,0-.49-.11-.52-.31h0L7.4,3.59c-.23-.15-.43-.25-.61-.06s0,.19.12.38Z"/><path class="cls-1" d="M8.73,1.46c.36.05.4.5.41.76a.41.41,0,0,1,.32,0,.29.29,0,0,1,.17-.1.39.39,0,0,1,.3,0,2.12,2.12,0,0,0,0-.7.29.29,0,0,0-.11.08.11.11,0,0,1-.2-.09c0-.23,0-.57-.12-.61s-.12,0-.14,0S9.24,1,9.2,1L9.08.87C9,.74,8.76.46,8.59.53s0,.35.05.5.08.2,0,.27a.2.2,0,0,1-.18.07c-.12,0-.15,0-.17.08a.28.28,0,0,0,.08.21C8.47,1.55,8.57,1.43,8.73,1.46Z"/><path class="cls-1" d="M11,3.64l0,0s0,0,0,0Z"/><path class="cls-1" d="M14.66,7.07h0V7A.08.08,0,0,1,14.66,7.07Z"/><path class="cls-1" d="M12.57,39.21c0,.09-.27.13-.43.12s-.49,0-.47-.14.24-.08.47-.07.42,0,.43.09Z"/><path class="cls-1" d="M5.88,30H5.76a.11.11,0,0,1-.09,0A1,1,0,0,0,5,29.59a1.72,1.72,0,0,0-.75.21,1.65,1.65,0,0,1-.62.17H3a.11.11,0,0,1-.11-.12V26.53l-.27.17v3.38H5.29a.16.16,0,0,1,.09,0,.8.8,0,0,0,.45.22h.11a.8.8,0,0,0,.44-.22.11.11,0,0,1,.08,0H9.11V26.7l-.26-.17v3.32a.12.12,0,0,1-.12.12H8.14a1.6,1.6,0,0,1-.62-.17,1.8,1.8,0,0,0-.76-.21,1.08,1.08,0,0,0-.68.34A.09.09,0,0,1,6,30Z"/><path class="cls-1" d="M9.35,30.19a.12.12,0,0,1-.12.12H6.51a1,1,0,0,1-.54.25H5.8a1,1,0,0,1-.56-.25H2.52a.12.12,0,0,1-.12-.12V26.74H2.16v3.84H5.23a.12.12,0,0,1,.09,0,.7.7,0,0,0,.39.2,1.37,1.37,0,0,0,.35,0,.84.84,0,0,0,.38-.2.1.1,0,0,1,.09,0H9.59V26.74H9.35v3.45Z"/><path class="cls-1" d="M4.92,25.91a1.25,1.25,0,0,0-.83.3.81.81,0,0,1-.48.21H3.14v3.32h.48a1.46,1.46,0,0,0,.52-.16A2.05,2.05,0,0,1,5,29.35a1.16,1.16,0,0,1,.77.34V26.34S5.63,25.91,4.92,25.91Zm.38,2.78s0,0,0,0a1.3,1.3,0,0,0-.51,0l-.37.15L4.19,29a1.54,1.54,0,0,1-.53.13,0,0,0,0,1-.05-.05s0-.05.05-.05a1.4,1.4,0,0,0,.49-.13l.19-.09.38-.15a1.3,1.3,0,0,1,.56,0S5.3,28.66,5.3,28.69Zm0-.7s0,0,0,0a1.25,1.25,0,0,0-.51,0l-.37.15-.19.09a1.41,1.41,0,0,1-.53.14,0,0,0,0,1-.05-.05.05.05,0,0,1,.05-.06,1.29,1.29,0,0,0,.49-.12l.19-.09.38-.16a1.4,1.4,0,0,1,.56,0S5.3,28,5.3,28Zm0-.7s0,0,0,0a1.3,1.3,0,0,0-.51,0l-.37.15-.19.09a1.32,1.32,0,0,1-.53.13,0,0,0,0,1-.05,0s0-.05.05-.05a1.4,1.4,0,0,0,.49-.13l.19-.09.38-.15a1.51,1.51,0,0,1,.56,0S5.3,27.26,5.3,27.29Zm0-.7s0,0,0,0a1.3,1.3,0,0,0-.51,0l-.37.14-.19.1a1.54,1.54,0,0,1-.53.13A0,0,0,0,1,3.61,27s0,0,.05,0a1.7,1.7,0,0,0,.49-.13l.19-.09.38-.15a1.3,1.3,0,0,1,.56,0S5.3,26.56,5.3,26.59Z"/><path class="cls-1" d="M6,30H5.76a.11.11,0,0,1-.09,0A1,1,0,0,0,5,29.59a1.72,1.72,0,0,0-.75.21,1.65,1.65,0,0,1-.62.17H3a.11.11,0,0,1-.11-.12V26.53l-.27.17v3.38H5.29a.16.16,0,0,1,.09,0,.8.8,0,0,0,.45.22h.11a.8.8,0,0,0,.44-.22.11.11,0,0,1,.08,0H9.11V26.7l-.26-.17v3.32a.12.12,0,0,1-.12.12H8.14a1.6,1.6,0,0,1-.62-.17,1.8,1.8,0,0,0-.76-.21,1.08,1.08,0,0,0-.68.34A.09.09,0,0,1,6,30Z"/><path class="cls-1" d="M9.59,26.74H9.35v3.45a.12.12,0,0,1-.12.12H6.51a1,1,0,0,1-.54.25H5.8a.9.9,0,0,1-.55-.25H2.52a.12.12,0,0,1-.12-.12V26.74H2.16v3.84H5.23a.12.12,0,0,1,.09,0,.7.7,0,0,0,.39.2,1.37,1.37,0,0,0,.35,0,.77.77,0,0,0,.38-.2.1.1,0,0,1,.09,0H9.59Z"/><path class="cls-1" d="M8.15,26.42a.76.76,0,0,1-.48-.21,1.3,1.3,0,0,0-.83-.3c-.72,0-.84.41-.84.4v3.38a1.11,1.11,0,0,1,.76-.34,2,2,0,0,1,.85.23,1.57,1.57,0,0,0,.53.16h.47V26.42Zm-.06,2.69A1.32,1.32,0,0,1,7.56,29l-.19-.09L7,28.74a1.25,1.25,0,0,0-.51,0s-.06,0-.06,0a.06.06,0,0,1,0-.07,1.46,1.46,0,0,1,.55,0l.39.16.19.09a1.54,1.54,0,0,0,.49.12.05.05,0,0,1,.05,0S8.12,29.12,8.09,29.11Zm0-.69a1.54,1.54,0,0,1-.53-.13l-.19-.1L7,28.05a1.3,1.3,0,0,0-.51,0,0,0,0,0,1-.06,0s0,0,0-.06A1.26,1.26,0,0,1,7,28l.39.15.19.09a1.7,1.7,0,0,0,.49.13.05.05,0,0,1,0,.1Zm0-.7a1.54,1.54,0,0,1-.53-.13l-.2-.1L7,27.35a1.3,1.3,0,0,0-.51,0,.05.05,0,0,1,0-.1,1.38,1.38,0,0,1,.56,0l.38.16.19.09a1.7,1.7,0,0,0,.49.13.05.05,0,1,1,0,.1Zm0-.7a1.54,1.54,0,0,1-.53-.13l-.19-.1L7,26.65a1.3,1.3,0,0,0-.51,0s0,0-.06-.05a.05.05,0,0,1,0,0,1.4,1.4,0,0,1,.56,0l.38.16.19.09a1.7,1.7,0,0,0,.49.13,0,0,0,1,1,0,.1Z"/><path class="cls-1" d="M15.39,30h.12a.11.11,0,0,0,.09,0,1,1,0,0,1,.68-.34,1.72,1.72,0,0,1,.75.21,1.6,1.6,0,0,0,.62.17h.6a.11.11,0,0,0,.11-.12V26.53l.27.17v3.38H16a.14.14,0,0,0-.09,0,.79.79,0,0,1-.43.22h-.12a.85.85,0,0,1-.45-.22.11.11,0,0,0-.08,0H12.15V26.7l.27-.17v3.32a.12.12,0,0,0,.12.12h.59a1.6,1.6,0,0,0,.62-.17,1.75,1.75,0,0,1,.75-.21,1,1,0,0,1,.68.34.12.12,0,0,0,.09,0Z"/><path class="cls-1" d="M18.86,30.19a.11.11,0,0,1-.11.12H16a1,1,0,0,1-.54.25h-.16a1,1,0,0,1-.56-.25H12a.12.12,0,0,1-.12-.12V26.74h-.24v3.84h3.06a.1.1,0,0,1,.09,0,.7.7,0,0,0,.39.2,1.37,1.37,0,0,0,.35,0,.72.72,0,0,0,.38-.2.11.11,0,0,1,.09,0h3.07V26.74h-.25v3.45Z"/><path class="cls-1" d="M15.51,30h-.24a.12.12,0,0,1-.09,0,1,1,0,0,0-.68-.34,1.75,1.75,0,0,0-.75.21,1.6,1.6,0,0,1-.62.17h-.59a.12.12,0,0,1-.12-.12V26.53l-.27.17v3.38h2.66a.11.11,0,0,1,.08,0,.85.85,0,0,0,.45.22h.12a.79.79,0,0,0,.43-.22.12.12,0,0,1,.09,0h2.65V26.7l-.27-.17v3.32a.11.11,0,0,1-.11.12h-.6A1.6,1.6,0,0,1,17,29.8a1.72,1.72,0,0,0-.75-.21,1,1,0,0,0-.68.34A.11.11,0,0,1,15.51,30Z"/><path class="cls-1" d="M19.11,26.74h-.25v3.45a.11.11,0,0,1-.11.12H16a1,1,0,0,1-.54.25h-.16a1,1,0,0,1-.56-.25H12a.12.12,0,0,1-.12-.12V26.74h-.24v3.84h3.06a.1.1,0,0,1,.09,0,.7.7,0,0,0,.39.2,1.37,1.37,0,0,0,.35,0,.72.72,0,0,0,.38-.2.11.11,0,0,1,.09,0h3.07Z"/><path class="cls-1" d="M14.43,25.91a1.3,1.3,0,0,0-.83.3.81.81,0,0,1-.48.21h-.47v3.32h.48a1.57,1.57,0,0,0,.53-.16,2,2,0,0,1,.84-.23,1.13,1.13,0,0,1,.77.34c0-.31,0-3.35,0-3.35S15.15,25.91,14.43,25.91Zm-1.27,1a1.56,1.56,0,0,0,.49-.13l.19-.09.39-.15a1.25,1.25,0,0,1,.55,0s.05,0,0,.06,0,0-.05,0a1.35,1.35,0,0,0-.52,0l-.36.14-.19.1a1.64,1.64,0,0,1-.53.13.06.06,0,0,1-.06-.05A0,0,0,0,1,13.16,26.92Zm0,.7a1.56,1.56,0,0,0,.49-.13l.19-.09.39-.15a1.31,1.31,0,0,1,.56,0s0,0,0,.06,0,.05-.06,0a1.3,1.3,0,0,0-.51,0l-.37.14-.19.1a1.64,1.64,0,0,1-.53.13.06.06,0,0,1-.06,0A0,0,0,0,1,13.16,27.62Zm1.61,1.11a1.3,1.3,0,0,0-.51,0l-.37.14-.19.1a1.59,1.59,0,0,1-.53.13.06.06,0,0,1-.06-.05,0,0,0,0,1,.05-.05,1.56,1.56,0,0,0,.49-.13l.19-.09.39-.15a1.31,1.31,0,0,1,.56,0s0,0,0,.06A0,0,0,0,1,14.77,28.73Zm0-.7a1.3,1.3,0,0,0-.51,0l-.37.14-.19.1a1.64,1.64,0,0,1-.53.13.06.06,0,0,1-.06-.05,0,0,0,0,1,.05-.05,1.56,1.56,0,0,0,.49-.13l.19-.09.39-.15a1.25,1.25,0,0,1,.55,0s.05,0,.05.06S14.79,28,14.77,28Z"/><path class="cls-1" d="M16.28,29.35a1.13,1.13,0,0,0-.77.34V26.31s.13-.4.84-.4a1.25,1.25,0,0,1,.83.3.81.81,0,0,0,.48.21h.47v3.32h-.48a1.46,1.46,0,0,1-.52-.16A2.05,2.05,0,0,0,16.28,29.35ZM16,27.23s0,0,0,.06,0,.05.06,0a1.3,1.3,0,0,1,.51,0l.37.14.19.1a1.64,1.64,0,0,0,.53.13.06.06,0,0,0,.06,0,0,0,0,0,0,0-.05,1.56,1.56,0,0,1-.49-.13l-.19-.09-.39-.16A1.41,1.41,0,0,0,16,27.23Zm0-.72s0,0,0,.06a.06.06,0,0,0,.06,0,1.25,1.25,0,0,1,.51,0l.37.15.19.09a1.41,1.41,0,0,0,.53.14.06.06,0,1,0,0-.11,1.22,1.22,0,0,1-.49-.12l-.2-.09-.38-.16A1.23,1.23,0,0,0,16,26.51Zm0,1.42a.05.05,0,0,0,0,.06s0,.05.06,0a1.3,1.3,0,0,1,.51,0l.37.14.19.1a1.59,1.59,0,0,0,.53.13.06.06,0,0,0,.06-.05,0,0,0,0,0,0-.05,1.56,1.56,0,0,1-.49-.13l-.19-.09L16.53,28A1.36,1.36,0,0,0,16,27.93Zm0,.7s0,0,0,.06,0,0,.06,0a1.3,1.3,0,0,1,.51,0l.37.14.19.1a1.59,1.59,0,0,0,.53.13.06.06,0,0,0,.06-.05.06.06,0,0,0,0-.06,1.22,1.22,0,0,1-.49-.12l-.19-.09-.39-.16A1.51,1.51,0,0,0,16,28.63Z"/><path class="cls-1" d="M8.24,36.46a.59.59,0,0,0-.16-.15.42.42,0,0,1-.19.15l-.2,0c-.22,0-.52.09-.61.32a.74.74,0,0,0-.06.27.61.61,0,0,0,.06.26l.09,0c-.06-.25.07-.49.11-.47s0,.16,0,.26a.24.24,0,0,0,0,.11.31.31,0,0,0,.1-.08.33.33,0,0,1,.29-.32l.13,0c.14,0,.44.18.56.07A2.21,2.21,0,0,0,8.24,36.46Z"/><path class="cls-1" d="M11.67,37.61l-.07,0h0c-.15,0-.85-.11-.95-.13a.66.66,0,0,0-.32.07.81.81,0,0,0-.4.37L10,38a.6.6,0,0,1,.31-.27.67.67,0,0,1,.43,0c.05,0-.18.09-.36.21a.6.6,0,0,0-.17.2h0a1.14,1.14,0,0,0,.26-.05l.24,0c.12,0,1.34,0,1.69,0l.05-.12A2.79,2.79,0,0,1,11.67,37.61Z"/><path class="cls-1" d="M12.1,39.73c0,.1-.33.14-.53.13s-.58,0-.56-.15.28-.08.56-.07.5,0,.53.09Zm-.53.54c0-.09-.32-.08-.5-.09s-.51,0-.53.07.26.13.53.14.52,0,.5-.12Zm-.59.55c0-.07-.24-.07-.37-.07s-.38,0-.39.06.19.11.39.12.38,0,.37-.11ZM6.25,34.21l-.06,0a.12.12,0,0,0,.08.23l.06,0a.12.12,0,0,0,.07-.15A.11.11,0,0,0,6.25,34.21Zm3.65-1s-.07-.05-.09,0l-.65.21a.13.13,0,0,0-.05.17c0,.06.1.11.16.08l.61-.33a.08.08,0,0,0,0-.1Zm.1.57a.08.08,0,0,0-.09,0l-.5.07a.14.14,0,0,0,.07.27l.48-.2a.09.09,0,0,0,0-.1Zm0,.62s0-.06-.08-.06H9.54a.11.11,0,0,0-.09.13.1.1,0,0,0,.11.11l.4-.08s.06-.05,0-.09ZM9.92,35s0-.06-.07-.06l-.29-.07a.1.1,0,0,0-.1.1c0,.06,0,.12.09.12l.31,0A.07.07,0,0,0,9.92,35Zm2.49-2a.12.12,0,0,0,.09.15s.34.1.6.21a.1.1,0,0,0,.13,0,.09.09,0,0,0,0-.13,4.84,4.84,0,0,0-.64-.27.11.11,0,0,0-.14.08Zm.14.55a.11.11,0,0,0,.08.13s.26.07.46.15a.1.1,0,0,0,.12,0,.09.09,0,0,0,0-.12,3,3,0,0,0-.49-.21.12.12,0,0,0-.13.08Zm.06.5a.07.07,0,0,0,.06.1l.32.11a.07.07,0,0,0,.1,0,.08.08,0,0,0,0-.11c-.24-.12-.3-.13-.35-.13a.08.08,0,0,0-.1.06Zm0,.45a.07.07,0,0,0,.06.09,1.2,1.2,0,0,1,.2.06.07.07,0,0,0,.07-.13.83.83,0,0,0-.24-.08.1.1,0,0,0-.09.06Zm1.12-.64a.12.12,0,0,0,0,.16,3.51,3.51,0,0,1,.36.25.09.09,0,0,0,.13-.13,2.56,2.56,0,0,0-.37-.32.12.12,0,0,0-.16,0Zm-.08.55a.1.1,0,0,0,0,.14,1.17,1.17,0,0,1,.25.16.11.11,0,0,0,.13,0,.08.08,0,0,0,0-.12c-.22-.21-.26-.22-.27-.22a.1.1,0,0,0-.14,0Zm-.13.43a.09.09,0,0,0,0,.12,1.13,1.13,0,0,1,.16.11.08.08,0,1,0,.11-.11.65.65,0,0,0-.18-.15.1.1,0,0,0-.12,0Zm-.17.35a.09.09,0,0,0,0,.11l.09.06a.07.07,0,0,0,.09,0,.07.07,0,0,0,0-.1.45.45,0,0,0-.1-.1.11.11,0,0,0-.11,0ZM14.45,35a.09.09,0,0,0,0,.12.36.36,0,0,1,.1.11.07.07,0,1,0,.13-.07.54.54,0,0,0-.1-.16.11.11,0,0,0-.13,0Zm-.24.32a.08.08,0,0,0,0,.11l.06.05s.06,0,.09,0a.08.08,0,0,0,0-.09.31.31,0,0,0-.07-.09.09.09,0,0,0-.11,0Zm-7.81,0c.1-.05-.13-.26-.07-.39s.57-.36.56-.44-.67.12-.77.34.18.53.28.49Zm.74-1.31c.09,0,.14,0,.17-.06a.08.08,0,0,1,.1,0c.06,0,.06.06.06.07s0,.1.08.12.23-.26,0-.39a.34.34,0,0,0-.26,0c-.16.05-.21.23-.12.27Zm7.23-.18A3.75,3.75,0,0,0,10,32.69a4.33,4.33,0,0,0-1.18.46l-.28.13-.9.11a5.08,5.08,0,0,0-1.11.52l-.34.19c-.56.29-.65.54-.65.54a.12.12,0,0,1-.07.07.24.24,0,0,0-.14.14v0l.12-.06a.13.13,0,0,1,.16,0,.12.12,0,0,1,0,.16l-.12.07a.51.51,0,0,0,.22.19l.05,0a.4.4,0,0,1,.56.24v.19a.38.38,0,0,1-.16.17.89.89,0,0,0,.36,0h.07l.13,0a2.59,2.59,0,0,1,.89-.07,1.83,1.83,0,0,1,.87.54,2.33,2.33,0,0,1,.25.79.6.6,0,0,1-.31.45,1,1,0,0,1-.47.08H7.77a1.68,1.68,0,0,0-.2.27H7.7c.08-.08.2-.19.24-.16s0,.09,0,.16h.37c.15,0,.44,0,.52-.06l.13-.1.4-.33.42-.34L9.93,37a2.61,2.61,0,0,0,0-1.14.11.11,0,0,1,.1-.13.12.12,0,0,1,.13.1,4.56,4.56,0,0,1,0,1h0a3.76,3.76,0,0,0,1,.43,1.55,1.55,0,0,1-.25-.48,1.16,1.16,0,0,1-.07-.4,1.61,1.61,0,0,1,.46-1,1.13,1.13,0,0,0,.31-.59v-.07a.12.12,0,0,1,.1-.11.11.11,0,0,1,.13.1,1.08,1.08,0,0,1-.36.81,1.16,1.16,0,0,0-.35,1.17,1.21,1.21,0,0,0,.51.68l0,0,.07,0a2.42,2.42,0,0,0,.85.21.13.13,0,0,1,.09,0,.1.1,0,0,1,0,.1,1.21,1.21,0,0,1-.12.36.1.1,0,0,1,0,0,.43.43,0,0,1-.09.1l-.42.31a15.29,15.29,0,0,0-1.39,1c-.67.55-1.06,1.32-1,1.65a.23.23,0,0,0,.21.15,2.77,2.77,0,0,0,2.37-1.22l.15-.16a6.63,6.63,0,0,0,.88-1.26,1.34,1.34,0,0,1,.26-.38A3.93,3.93,0,0,0,15,35.91,2.66,2.66,0,0,0,14.37,33.75Z"/><path class="cls-1" d="M17.33,38.25a1.3,1.3,0,0,0,.64-.09,1,1,0,0,0,.45-.36c.16.22.52.74.65.94a5.85,5.85,0,0,1-.81.86Z"/><path class="cls-1" d="M2.9,37.8a1,1,0,0,0,.45.36,1.34,1.34,0,0,0,.65.09L3,39.6a5,5,0,0,1-.81-.86Z"/><path class="cls-1" d="M6,45.84a1,1,0,0,1,.18-.18l.17-.15a7.52,7.52,0,0,0,.73-.63,3.3,3.3,0,0,1,1.14.73.52.52,0,0,1,.08.68l-.13.13-.32.32H7.65c-1,0-1.59-.32-1.72-.64A.28.28,0,0,1,6,45.84Z"/><path class="cls-1" d="M15,45.52l.17.14.18.18a.37.37,0,0,1,0,.29c-.13.32-.78.65-1.72.64h-.19l-.3-.35L13,46.29a.57.57,0,0,1,.08-.68,3.3,3.3,0,0,1,1.15-.73A9.46,9.46,0,0,0,15,45.52Z"/><path class="cls-1" d="M3.21,35.83Z"/><path class="cls-1" d="M6.35,44.26l-.1,0a12.27,12.27,0,0,1-4.84-3.08,2.46,2.46,0,0,1-.52-2.72l.3-.63.28-.59a2.31,2.31,0,0,0,.2,1.08,7.79,7.79,0,0,0,3.1,2.87c.5.28,1,.5,1.47.72,1.31.6,2.35,1.08,2.35,2.26v1.38a.81.81,0,0,1,0,.16,1,1,0,0,0-.15-.25A5.59,5.59,0,0,0,6.35,44.26Zm-2.16-2.9s0-.08.07-.13a5.14,5.14,0,0,1-.49-.32l-.07.14.12.08c-.17.35-.33.69-.49,1L3.2,42.1l-.06.14c.26.18.54.34.81.5l.24-.3v0l-.12-.11a.74.74,0,0,1-.21.19,1,1,0,0,1-.32-.19,10.77,10.77,0,0,1,.49-1s.11.06.15.08Zm-1.27.09.19-.36L3,41a.86.86,0,0,1-.07.1s-.18-.13-.22-.16L3,40.5a1.59,1.59,0,0,1,.27.24c0,.06-.05.17-.06.23s.09.07.12.09.12-.24.17-.36c-.25-.19-.49-.39-.73-.59l-.07.13.11.1-.52,1-.11-.09-.07.13c.24.21.48.41.74.61L3,41.69v0l-.12-.11a1,1,0,0,1-.16.19,1,1,0,0,1-.3-.25,2.58,2.58,0,0,1,.22-.44,1.2,1.2,0,0,1,.2.18.69.69,0,0,1,0,.13l.11.08Zm4.3,1.29c-.35-.2-.73-.36-1.1-.53l-.18.35.15.08.14-.19a.75.75,0,0,1,.27.08L6,43.6l-.16-.07-.06.13.57.25.06-.12-.16-.08c.15-.35.33-.72.48-1.07A.59.59,0,0,1,7,42.8a1.8,1.8,0,0,0-.08.21s.12.06.16.08l.17-.35ZM6,42.13l-.46-.23L5.43,42l.16.09c-.17.35-.43,1.15-.79.92s-.16-.38,0-.68S5,42,5,41.83l.16.08.06-.13c-.17-.08-.34-.18-.51-.27,0,.05,0,.09-.07.13l.11.06a2,2,0,0,1-.15.35c-.18.36-.35.64-.19.9a.66.66,0,0,0,.17.16.76.76,0,0,0,.31.12c.42,0,.62-.53.84-1l.12,0L6,42.13ZM2.43,40.05l.09.08L2.58,40l-.36-.35s-.05.09-.07.13l.13.13c-.12.13-.56.62-.6.65h0s.16-1,.18-1.12l.13.13.07-.12c-.13-.16-.25-.33-.37-.5l-.08.12.06.11c0,.13-.23,1.38-.24,1.52l.13.17a10.64,10.64,0,0,0,.87-.82Z"/><path class="cls-1" d="M19.91,41.14a12.27,12.27,0,0,1-4.84,3.08l-.1,0a5.46,5.46,0,0,0-2.08,1.16.79.79,0,0,0-.15.25.81.81,0,0,1,0-.16V44.13c0-1.18,1-1.66,2.35-2.26.48-.22,1-.44,1.47-.72a7.79,7.79,0,0,0,3.1-2.87,2.31,2.31,0,0,0,.2-1.08l.28.59.29.63A2.43,2.43,0,0,1,19.91,41.14Zm-4.5,1.74h0c0-.21,0-.4.06-.62h0c.08.18.15.32.24.5l-.3.14Zm1.14-.15c0,.05.05.18,0,.22a1.11,1.11,0,0,1-.4.22c-.07-.13-.12-.28-.19-.42s.3-.15.34-.15l.06.11.13-.07c-.06-.13-.11-.26-.17-.4l-.13.07,0,.12a2,2,0,0,1-.32.2c-.09-.18-.15-.34-.23-.51a2.58,2.58,0,0,1,.38-.18.58.58,0,0,1,.14.17l.13-.08a2.38,2.38,0,0,0-.16-.32c-.27.14-.6.31-.87.43,0,.5-.09,1-.13,1.49l-.12.07.06.13.45-.2a.5.5,0,0,0-.05-.13l-.15.06c0-.16,0-.36,0-.52l.37-.18c.06.13.12.3.19.43l-.14.08.06.12c.29-.13.64-.31.93-.46,0-.11-.07-.23-.11-.35l-.15,0ZM17.62,41l.1-.07c0-.05,0-.09-.07-.13l-.43.29s.05.08.07.13l.14-.09c0,.2.1.8.11.94s0,.11,0,.17h0s-.14-.14-.17-.17L17,41.69l-.16-.18.16-.1a.78.78,0,0,1-.05-.14l-.55.31.06.13.11-.05.23.24.5.51.21.22.18-.11c0-.34,0-.69-.07-1,0-.14,0-.32,0-.46Zm1.31.49c-.3.24-.63-.14-.71-.5a.59.59,0,0,1,.06-.49l.08-.08a.4.4,0,0,1,.21-.07c.36,0,.71.84.36,1.14Zm.12-1.18a.56.56,0,0,0-.74,0l-.14.12A.89.89,0,0,0,18,41a.91.91,0,0,0,0,.23.66.66,0,0,0,.13.31.55.55,0,0,0,.74.23.87.87,0,0,0,.19-1.38Z"/><path class="cls-1" d="M15.52,46.4v2c0,.59-1,.8-1.88.8h-6c-.87,0-1.88-.21-1.88-.8v-2A2.48,2.48,0,0,0,7.68,47h6A2.48,2.48,0,0,0,15.52,46.4Zm-2,1.72c0-.19,0-.38,0-.57a.59.59,0,0,1,.23,0,.31.31,0,0,1,.12.45c-.07.1-.2.11-.36.11Zm.65.45c-.05-.11-.14-.34-.26-.38v0a.38.38,0,0,0,.16-.64c-.19-.16-.59-.12-.93-.12v.14h.14v1.13h-.14v.14h.55V48.7h-.16v-.43a.5.5,0,0,1,.18,0c.14.06.22.45.33.57a2.16,2.16,0,0,0,.36,0V48.7H14.3c-.05,0-.06-.08-.09-.12Zm-3.3-.06c0,.12-.13.17-.26.2a.24.24,0,0,1-.19,0s0-.07,0-.12a2.35,2.35,0,0,1,0-.38c.25,0,.52.07.45.34Zm-.45-1c.15,0,.28,0,.34.1a.2.2,0,0,1,0,.16c0,.18-.17.24-.39.23,0-.17,0-.33,0-.49Zm.39.53h0v0c.25-.1.38-.43.09-.59a2.25,2.25,0,0,0-.88-.06v.14h.15V48.7h-.15v.13a2.26,2.26,0,0,0,.93-.08.37.37,0,0,0,.15-.52c-.08-.1-.16-.11-.28-.16ZM9,48.12v-.57a.58.58,0,0,1,.23,0,.31.31,0,0,1,.12.45c-.07.1-.2.11-.35.11Zm.65.45c-.06-.11-.15-.34-.27-.38v0a.38.38,0,0,0,.17-.64c-.2-.16-.6-.12-.94-.12v.14h.14v1.13H8.6a.66.66,0,0,1,0,.14h.55V48.7H9c0-.14,0-.29,0-.43a.53.53,0,0,1,.18,0c.13.06.21.45.32.57a2.16,2.16,0,0,0,.36,0V48.7H9.72c-.05,0-.06-.08-.08-.12ZM7.43,48.3c.07-.2.14-.4.2-.59h0l.18.59Zm.35-.9a.45.45,0,0,0-.2,0c-.16.43-.32.86-.49,1.29H7v.14h.5V48.7H7.31l.08-.26h.48A.67.67,0,0,1,8,48.7H7.81v.14h.55V48.7H8.23l-.45-1.3Zm4.45,1.32c-.38.06-.53-.42-.45-.78a.52.52,0,0,1,.25-.38l.12,0a.41.41,0,0,1,.21,0c.33.2.32,1.07-.13,1.15Zm-.08-1.33-.18,0a.73.73,0,0,0-.4.33.71.71,0,0,0-.07.22.72.72,0,0,0,.58.89.76.76,0,0,0,.74-1.07.61.61,0,0,0-.67-.4Z"/><path class="cls-1" d="M20.76,25v.12a.68.68,0,0,0,0,.12H.56V25Zm0,0V17.24H.56V25m8.6-2.67a.22.22,0,0,1,0,.43A.21.21,0,0,1,9,22.49a.21.21,0,0,1,.21-.21Zm-1.51.49a.22.22,0,0,1,.29.09.2.2,0,0,1-.09.28.2.2,0,0,1-.28-.08.21.21,0,0,1,.08-.29Zm.79-.22a.11.11,0,0,1,.11.11.11.11,0,0,1-.22,0,.11.11,0,0,1,.11-.11ZM9.9,22.3a.11.11,0,1,1-.11.11.11.11,0,0,1,.11-.11Zm2.44.19a.22.22,0,1,1-.43,0,.22.22,0,0,1,.43,0Zm1.38.57a.21.21,0,0,1-.29.08.2.2,0,0,1-.08-.28.2.2,0,0,1,.28-.09.22.22,0,0,1,.09.29Zm-.77-.4a.11.11,0,0,1-.22,0,.11.11,0,0,1,.22,0Zm-1.45-.25a.11.11,0,1,1-.11-.11.11.11,0,0,1,.11.11Zm-.86-2.6a.21.21,0,0,1,0,.42.21.21,0,1,1,0-.42Zm0-.6a.21.21,0,0,1,.21.22.21.21,0,0,1-.21.21.22.22,0,1,1,0-.43Zm0-.6a.21.21,0,0,1,.21.22.21.21,0,0,1-.21.21.21.21,0,0,1-.22-.21.22.22,0,0,1,.22-.22Zm-1,.06a.21.21,0,0,1,.21.21.22.22,0,1,1-.43,0,.21.21,0,0,1,.22-.21Zm-.7-.23a.21.21,0,0,1,.21.21.22.22,0,1,1-.43,0,.21.21,0,0,1,.22-.21Zm-.73-.16a.22.22,0,1,1-.21.21.22.22,0,0,1,.21-.21Zm-.73.1a.21.21,0,0,1,.21.22.21.21,0,0,1-.42,0,.21.21,0,0,1,.21-.22Zm-.64.4A.22.22,0,1,1,6.6,19a.22.22,0,0,1,.21-.21Zm-.36.65a.21.21,0,0,1,0,.42.21.21,0,1,1,0-.42Zm0,.75a.21.21,0,0,1,.22.21.22.22,0,1,1-.43,0,.21.21,0,0,1,.21-.21Zm.27.69a.21.21,0,0,1,.21.21.21.21,0,0,1-.21.22.22.22,0,1,1,0-.43Zm5.18-2a.22.22,0,0,1-.22.22.21.21,0,0,1-.21-.22.21.21,0,0,1,.21-.21.21.21,0,0,1,.22.21Zm.7-.23a.22.22,0,0,1-.22.22.21.21,0,0,1-.21-.22.21.21,0,0,1,.21-.21.21.21,0,0,1,.22.21Zm.72-.16a.22.22,0,1,1-.43,0,.22.22,0,0,1,.43,0Zm.73.11a.21.21,0,1,1-.42,0,.21.21,0,1,1,.42,0Zm.64.39a.22.22,0,1,1-.43,0,.22.22,0,0,1,.43,0Zm.37.65a.21.21,0,0,1-.22.21.21.21,0,1,1,0-.42.21.21,0,0,1,.22.21Zm0,.75a.22.22,0,1,1-.43,0,.21.21,0,0,1,.22-.21.21.21,0,0,1,.21.21Zm-.27.69a.21.21,0,1,1-.42,0,.21.21,0,0,1,.42,0Zm-2.09,3.41a1,1,0,0,1,.18-.09c.45-.21.61-.47.61-.66,0-.37-1.22-.79-2.85-.79s-2.86.42-2.86.79c0,.19.18.45.64.66l.18.09s-.16,0-.21,0c-.51-.17-.84-.41-.84-.72,0-.66,1.59-1,3.09-1s3.09.36,3.09,1c0,.31-.33.55-.84.72,0,0-.21.05-.19,0Zm-2-2.45a7.61,7.61,0,0,0-2.47.37,3.29,3.29,0,0,0-.6.3.11.11,0,0,1-.11,0c-.06,0-.07-.08-.08-.15a3.52,3.52,0,0,0-.33-1c0-.05,0-.1.07-.05a3.58,3.58,0,0,1,.46.85h0a3.88,3.88,0,0,1,.49-.23,7.79,7.79,0,0,1,2.55-.38h0a7.79,7.79,0,0,1,2.55.38,3.66,3.66,0,0,1,.48.23h0a4,4,0,0,1,.47-.85s.09,0,.07.05a3.52,3.52,0,0,0-.33,1c0,.07,0,.12-.08.15a.11.11,0,0,1-.11,0,3.12,3.12,0,0,0-.61-.3A7.5,7.5,0,0,0,10.65,22Zm.46-4a.12.12,0,0,1-.11.12h-.23v.23a.12.12,0,0,1-.12.12.11.11,0,0,1-.11-.12v-.23H10.3a.13.13,0,0,1-.12-.12.12.12,0,0,1,.12-.12h.23v-.22a.12.12,0,0,1,.11-.12.12.12,0,0,1,.12.12v.22H11A.11.11,0,0,1,11.1,18.05Zm-.47,5.23c.85,0,2.47.14,2.47.66s-1.62.65-2.47.65-2.48-.13-2.48-.65S9.77,23.28,10.63,23.28Zm3.9-3.3a3.32,3.32,0,0,1-.75,1.68h0a.57.57,0,0,1-.71.27.61.61,0,0,1-.46-.29.35.35,0,0,1,0-.39s.12-.08.16-.06.05.08,0,.13a.17.17,0,0,0,.07.23.12.12,0,0,0,.15,0s-.12-.1,0-.19.32-.29,0-.44-.43.22-.46.26-.05,0,0,0c.05-.23.25-.31.3-.57a.49.49,0,0,0-.17-.42.1.1,0,0,0-.11,0,.5.5,0,0,0-.31.31c-.05.26.11.41.06.65,0,0,0,0,0,0s-.05-.43-.31-.42-.22.31-.17.41-.08.15-.08.16,0,.1.13.09.18-.1.15-.18a.08.08,0,0,1,.06-.11c.05,0,.11.07.12.11a.33.33,0,0,1-.13.37.75.75,0,0,1-.58.11c-.48-.05-.51-.34-.51-.34l.32.12h0a.08.08,0,0,0,.08-.08v-.46a.07.07,0,0,0-.08-.07h0L10.9,21l.09-.26s0,0,0,0a.09.09,0,0,0-.08-.08h-.55a.09.09,0,0,0-.08.08s0,0,0,0l.09.26-.33-.13h0a.07.07,0,0,0-.07.07v.46a.08.08,0,0,0,.07.08h0l.32-.12s0,.29-.51.34a.75.75,0,0,1-.58-.11.33.33,0,0,1-.13-.37s.07-.12.12-.11a.08.08,0,0,1,.06.11c0,.08,0,.17.15.18s.14-.06.13-.09-.15,0-.08-.16.18-.39-.17-.41-.31.37-.31.42,0,0-.05,0c0-.24.11-.39.06-.65a.5.5,0,0,0-.31-.31.1.1,0,0,0-.11,0,.49.49,0,0,0-.17.42c0,.26.25.34.3.57,0,.05,0,.07,0,0s-.22-.37-.46-.26-.08.37,0,.44,0,.18,0,.19.08.06.15,0a.17.17,0,0,0,.07-.23s0-.12,0-.13.13,0,.16.06a.35.35,0,0,1,0,.39.61.61,0,0,1-.46.29.57.57,0,0,1-.71-.27h0A3.36,3.36,0,0,1,6.76,20a1.21,1.21,0,0,1,1.32-1.13,2.86,2.86,0,0,1,.95.22,2.24,2.24,0,0,0,1,.2v-.66a.12.12,0,0,1,.12-.12.12.12,0,0,1,.12.12v1.74h.83V18.61a.12.12,0,0,1,.12-.12.12.12,0,0,1,.12.12v.66a2.21,2.21,0,0,0,1-.2,2.86,2.86,0,0,1,1-.22A1.21,1.21,0,0,1,14.53,20Zm-3.9,4.38c1.47,0,2.23-.3,2.23-.42s-.76-.42-2.23-.42-2.24.29-2.24.42S9.15,24.36,10.63,24.36ZM10,19.51H9.77l.22.12Zm4.19,1a1.61,1.61,0,0,0,.11-.52,1,1,0,0,0-1.08-.89,2.46,2.46,0,0,0-.86.21l-.36.12h.1a1.45,1.45,0,0,1,1,.36,1.08,1.08,0,0,1,.95.38A.88.88,0,0,1,14.18,20.5Zm-2.88-1v.12l.22-.12Zm2.52.78A.89.89,0,0,0,13,20a.14.14,0,0,1-.1-.05,1.12,1.12,0,0,0-.84-.31,1,1,0,0,0-.77.3h0v.3a1.37,1.37,0,0,1,.35-.25.77.77,0,0,1,.24-.07c.08,0,.14,0,.15.05s-.19.1-.35.22a1.35,1.35,0,0,0-.29.3c.1,0,.16,0,.16.08a.47.47,0,0,1,.35-.13H12v0a.76.76,0,0,1,.55-.52.25.25,0,0,1,.2,0,.78.78,0,0,1,.31.58.45.45,0,0,1,0,.11.06.06,0,0,1,0,0l.08,0a.44.44,0,0,1,.29.36v0a.55.55,0,0,1-.16.35v0a.13.13,0,0,1,0,.06.23.23,0,0,1-.1.2h0a.59.59,0,0,0,.37-.44c.15-.5-.42-.89-.36-1s.11,0,.11,0a.86.86,0,0,1,.51.85,1.74,1.74,0,0,0,.11-.18h0A.82.82,0,0,0,13.82,20.29ZM9.3,19.42l-.36-.12a2.46,2.46,0,0,0-.86-.21A1,1,0,0,0,7,20a1.39,1.39,0,0,0,.11.52.88.88,0,0,1,.17-.35,1.07,1.07,0,0,1,1-.38,1.48,1.48,0,0,1,1-.36Zm1.55,3a.22.22,0,0,1-.21.21.21.21,0,0,1-.21-.21.21.21,0,0,1,.21-.21A.21.21,0,0,1,10.85,22.38ZM10,20h0a1,1,0,0,0-.77-.3,1.16,1.16,0,0,0-.85.31.11.11,0,0,1-.09.05.92.92,0,0,0-.81.28.84.84,0,0,0-.12.68h0l.12.18A.86.86,0,0,1,8,20.31s.08,0,.11,0-.51.48-.36,1a.6.6,0,0,0,.39.45l0,0a.25.25,0,0,1-.09-.2.13.13,0,0,1,0-.06v0a.5.5,0,0,1-.16-.35V21a.44.44,0,0,1,.29-.35l.08,0s0,0,0,0,0-.08,0-.12a.74.74,0,0,1,.32-.57.25.25,0,0,1,.2,0,.76.76,0,0,1,.55.52v0h.08a.43.43,0,0,1,.34.13c0-.06.06-.11.17-.08a1.61,1.61,0,0,0-.29-.3c-.16-.12-.35-.19-.35-.22s.07-.05.15-.05a.87.87,0,0,1,.24.07,1.37,1.37,0,0,1,.35.25Z"/><path class="cls-1" d="M21.38,16.68H0v10.8A17.06,17.06,0,0,0,2.13,35.7a2,2,0,0,0-1,1l-.41.84-.29.63A2.74,2.74,0,0,0,.2,39.34,3.37,3.37,0,0,0,1,41.45a12.74,12.74,0,0,0,5,3.23l.33.13L6,45.14l-.16.13-.15.13-.06.06a1.36,1.36,0,0,0-.34,1v2c0,.81.88,1.29,2.37,1.29h6c1.49,0,2.37-.48,2.37-1.29v-2a1.36,1.36,0,0,0-.34-1l0-.05-.16-.12h0l-.55-.48.34-.13a12.76,12.76,0,0,0,5-3.23,3.37,3.37,0,0,0,.83-2.11,2.7,2.7,0,0,0-.25-1.13l-.29-.62-.4-.84a2.12,2.12,0,0,0-1-1,17.09,17.09,0,0,0,2.17-8.28ZM20,36.86l.4.83.29.62a2.49,2.49,0,0,1,.23,1,3.12,3.12,0,0,1-.78,1.95,12.52,12.52,0,0,1-4.94,3.16l-.71.29.87.73.13.11,0,0a1.14,1.14,0,0,1,.29.83v2c0,.65-.8,1.05-2.13,1.05h-6c-1.33,0-2.13-.4-2.13-1.05v-2a1.09,1.09,0,0,1,.28-.82l0-.05L6,45.46l.17-.14.69-.58-.71-.29a12.52,12.52,0,0,1-4.94-3.16,3.12,3.12,0,0,1-.78-1.95,2.44,2.44,0,0,1,.23-1l.3-.63.4-.84a1.73,1.73,0,0,1,.88-.93l.12.21a1.26,1.26,0,0,0-.46.43,1.5,1.5,0,0,0-.2.77,2.18,2.18,0,0,0,.18.83l.17.42.87-1.27,0,.17a.76.76,0,0,0,.46.45l.12,0,.48.64-.81,1.17.18.14a11.71,11.71,0,0,0,1.48,1c.5.28,1,.5,1.45.72s.87.4,1.25.62.56.47.82.67a1.81,1.81,0,0,1,.43,1.18v1.39a1.2,1.2,0,0,1-.3.87l-.37.41h5l-.36-.41a1.16,1.16,0,0,1-.31-.87V44.12a1.76,1.76,0,0,1,.33-1.06c.34-.26.71-.56,1.11-.89s.69-.35,1.07-.53,1-.44,1.44-.71a12.18,12.18,0,0,0,1.48-1l.18-.15-.78-1.13.52-.69.05,0a.76.76,0,0,0,.46-.45s0-.08.05-.17l.87,1.27.17-.42a2.18,2.18,0,0,0,.18-.83,1.5,1.5,0,0,0-.2-.77,1.34,1.34,0,0,0-.41-.41l.09-.17A1.9,1.9,0,0,1,20,36.86Zm-15.76,2A24.74,24.74,0,0,0,6.82,41.6l-.38-.17C6,41.21,5.5,41,5,40.72a13,13,0,0,1-1.45-1Zm8.4,7.73H8.72a1.4,1.4,0,0,0,.36-1V44.12a2.13,2.13,0,0,0-.14-.78,14.34,14.34,0,0,0,1.47,1l.28.17.28-.17a14,14,0,0,0,1.38-.92,2.38,2.38,0,0,0-.11.73v1.38A1.4,1.4,0,0,0,12.6,46.54Zm2-5a25,25,0,0,0,2.54-2.71l.61.89a12.91,12.91,0,0,1-1.45,1c-.48.27-.95.49-1.42.7ZM17,38.64A23.88,23.88,0,0,1,13.78,42l-1.17.94a15,15,0,0,1-1.76,1.21l-.16.09-.16-.09a18.19,18.19,0,0,1-1.92-1.32l-.9-.73A24.27,24.27,0,0,1,4.35,38.6l-.16-.2c-.1-.13-.21-.26-.31-.4l-.17-.24c-.34-.48-.67-1-1-1.5L2.6,36l-.11-.19-.12-.22A16.92,16.92,0,0,1,.25,27.48V16.93H21.14V27.48A16.84,16.84,0,0,1,19,35.67l-.12.23-.09.15-.13.22c-.1.18-.21.35-.31.52l-.06.09c-.19.29-.39.58-.59.86l-.19.27-.33.42Z"/><path class="cls-1" d="M4.46,7.21c-.08,0-.12.13-.15.13s-.16-.18-.15-.21a1.53,1.53,0,0,1,.53-.2s-.05.2-.05.2A.44.44,0,0,0,4.46,7.21Z"/><path class="cls-1" d="M6.45,3.89l0-.08a2.64,2.64,0,0,1,.25.4.65.65,0,0,1,0,.25s-.07,0-.07,0-.07-.38,0-.3S6.51,4,6.45,3.89Z"/><path class="cls-1" d="M10.23,1.85c0-.11,0-.28,0-.28s.21.4.23.46-.14.1-.17.13a1,1,0,0,0-.09.18l-.08-.09S10.22,2,10.23,1.85Z"/><path class="cls-1" d="M7.2,3.13a3.6,3.6,0,0,0,.52.18s0,.12,0,.15-.16-.11-.28-.18a1.42,1.42,0,0,0-.21-.11s-.05,0-.05,0"/><path class="cls-1" d="M14.35,2.85a1.24,1.24,0,0,0-.23.33s.09,0,.09,0,.31-.25.35-.3S14.35,2.85,14.35,2.85Z"/></g></svg>